<svg id="plate_broken" xmlns="http://www.w3.org/2000/svg" viewBox="0 0 2209.9832 2231.1907"><g id="shards"><g id="shard10"><path d="M1880,352l-16-3L1386,150a228.0051,228.0051,0,0,1-15,21c-50.6445,63.015-123.979,85.2988-170,94q19-35.5,38-71l-22-15q12.5-27,25-54l-10-4c-12.3032,20.56-24.8087,43.2306-37,68-12.0476,24.4776-22.2826,47.9454-31,70q-1-36.5-2-73-7-27.5-14-55l-15-19-17-1c-6.0955,1.8154-15.3188,4.4277-26.6461,7.0927-38.76,9.119-60.42,7.4291-89.93,12.9351q-44.0825,8.2252-87.4,20.0671Q869.22,162.8014,827.45,177.9842q-41.37,15.04-81.4539,33.4022-39.78,18.2238-78.0382,39.6054-38.0346,21.2565-74.3274,45.4991-36.135,24.1369-70.3212,51.0833-34.0825,26.8646-66.02,56.358-31.8784,29.44-61.4235,61.3231-29.5233,31.8621-56.5316,65.9786-27.0186,34.1333-51.3448,70.3248-24.3641,36.2535-45.8626,74.3612-21.56,38.2243-40.0852,78.0883-18.6058,40.0468-34.0126,81.5057-15.5008,41.7222-27.6448,84.6135-12.2433,43.2516-20.9818,87.412-8.8314,44.6349-14.0235,89.9009c-.9417,8.2076-1.7974,17.4889-1.7974,17.489-2.1548,22.3922-3.3845,40.9408-4.1122,53.9953Q92.2348,1207.4621,85,1246l3,18,15,9,228,4,191,102h79l243.967-180.6516,258.9972-16.1066q59.8871-43.8887,119.7738-87.7774l117.1-86.1117,273.3426-92.851L1771.9873,794.48,1810.63,665.548l2.9446-112.1236,79.1724-100.3961Q1891.3734,412.5141,1890,372Z" transform="translate(-84.4734 -106.9474)" style="fill:#bfbfbf"/><path d="M1879.1527,359.3505l.0049-.0868c.3468-2.4363.6321-4.8589.89-7.2755q-10.721-8.6434-21.65-17.0287C1718.3949,227.7748,1553.2385,154.9938,1379.76,124.6786q-32.4859-5.6769-65.267-9.386L1289,130l-46.3794,43.3278,23.5564,21.3172-73.0664,63.0015,33.3059-58.5766-23.647-14.5286,28.8251-63.26-32.51,22.5739-46.48,115.3281Q1150.8028,224.5919,1149,190l-7.34-29.1682-7.1634-26.3116q-9.0006-11.9314-18.0009-23.8631-19.6528,1.2874-39.2533,3.2567-45.2727,4.5846-90.0671,12.8935-44.15,8.1974-87.5339,19.9971-42.8706,11.6649-84.705,26.7924-41.4345,14.9853-81.58,33.2794-39.8421,18.1563-78.16,39.458-38.0943,21.1768-74.4444,45.3282-36.1921,24.0459-70.4328,50.89-34.1367,26.7626-66.1254,56.1437-31.93,29.3274-61.5226,61.0889-29.5711,31.74-56.6237,65.7258-27.063,34.0022-51.43,70.0543-24.4045,36.1139-45.9394,74.0744-21.5965,38.0767-40.1537,77.7863-18.6381,39.8919-34.0722,81.19-15.5284,41.56-27.6951,84.2848-12.2661,43.0833-21.0223,87.0716-8.8491,44.4609-14.0537,89.55c-3.8911,33.7009-5.3692,59.9183-5.9256,71.2048C84.1382,1193.5277,84.2505,1222.34,85,1246l17,11,232.1385,5.2792L519.3018,1363.474q39.08.792,78.16,1.5836l240.1186-179.3912,260.1466-15.8331,114.0056-83.3869,117.2854-85.7858,273.7655-92.5144,158.058-120.5628,38.7137-128.4311,2.96-111.6845,79.3021-100.0107Q1880.4853,403.4037,1879.1527,359.3505Z" transform="translate(-84.4734 -106.9474)" style="fill:#fff"/><path d="M1532.97,386.4067c-111.2763-47.125-229.4726-71.0195-351.3047-71.0195s-240.0283,23.8945-351.3051,71.02A906.1908,906.1908,0,0,0,350.0918,867.2749C303.0283,978.6846,279.165,1097.0225,279.165,1219q0,17.2366.6358,34.3733L280,1263l31,1-.184-11.0823c-.8161-15.9887-.651-28.0941-.651-33.9177,0-481.16,390.9532-872.6128,871.5-872.6128,17.8216,0,112.3871-1.7186,230.7558,31.046C1609.2673,431.9206,1738.7159,543.8155,1801,606q.5-21.5,1-43a892.0672,892.0672,0,0,0-269.03-176.5933Z" transform="translate(-84.4734 -106.9474)" style="fill:#e3e0e0"/><g id="variant_uno"><path d="M479.5429,1042.7679c-12.23-2.5086-24.7978-1.6986-37.0218-.8144-18.5769,1.3437-37.1615,5.1952-55.4585,9.4193-2.1434.655-3.2148.986-5.3574,1.6549-3.2062,1.1386-4.8087,1.7164-8.012,2.8892-2.44.9068-3.92,1.3224-4.4471,1.2285q-.473-.0845-.9166-1.69a6.5126,6.5126,0,0,1-.2006-2.9195c.5622-3.062,2.6462-5.1586,6.2271-6.27a34.2531,34.2531,0,0,1,5.1052-1.5288c1.8714-.4144,3.304-.8922,4.0379-1.0434,1.4073-.29,2.6595-.2464,3.0155-.3985,8.8644-2.4387,14.4808-3.7517,16.8482-4.1277,3.456-.58,5.184-.8631,8.6394-1.4151,3.2412-.4689,4.8615-.6973,8.1018-1.1426,3.4281-.4049,5.142-.6011,8.5688-.9809a34.271,34.271,0,0,0,7.8732-.7605c6.5209-.4126,9.78-.599,16.2941-.9328.4157.0961,3.2234.0248,8.4173-.1761,3.242-.09,4.8624-.13,8.1025-.2022-8.2954-7.3625-18.5367-12.6456-28.3713-17.3733a205.9784,205.9784,0,0,1-35.4173-22.1133c-9.84-7.5245-17.0556-13.0465-21.5511-16.3674.156-1.7332.2364-2.6.4015-4.3323a9.2449,9.2449,0,0,1,1.2991-2.19c.519-.6443.9364-.9231,1.2429-.8333,2.253.66,5.0459,2.5063,8.4,5.5021,1.383,1.21,2.0755,1.8136,3.4624,3.017,4.2575,3.5029,6.3945,5.2395,10.6845,8.6822a130.9858,130.9858,0,0,0,13.7228,10.4672c3.3071,2.078,8.1742,4.7282,14.6163,7.9074,1.36.6132,2.0409.9192,3.4021,1.53,5.31,2.4545,8.8934,4.1632,10.7244,5.1552a40.2644,40.2644,0,0,1,6.7362,5.2833,84.16,84.16,0,0,0,7.2816,5.8017c1.371.585,2.0568.877,3.4286,1.46a36.4571,36.4571,0,0,1,9.0735,4.6389c3.1442,2.3038,4.1912,5.7471,3.1556,10.2183C480.8062,1041.11,480.3844,1041.6615,479.5429,1042.7679Zm-9.7836-8.8156c.0978.143.1468.2146.2447.3575l.3777-.21Z" transform="translate(-84.4734 -106.9474)" style="fill:#3dbacc"/><path d="M519.8339,920.1065q-.96.8084-3.3838.382c-7.8226-1.5064-12.7065-2.4181-14.6236-2.8135-2.5822-.4663-3.874-.6968-6.459-1.1531a101.4788,101.4788,0,0,0-6.2186,13.1368c-1.6611,3.8459-2.4788,5.7771-4.0878,9.6551-1.9539,4.2451-3.2748,7.3934-4.0065,9.4052-.3991,1.0976-.38,1.8339.056,2.1948.3013.1088.417.2572.3522.4373,1.1252.6538,1.688.98,2.8141,1.6323,1.7408.8336,4.99,3.1425,9.7841,6.8643a21.0993,21.0993,0,0,1,5.2054,5.4563c1.2162,2.02,1.6094,3.6592,1.1831,4.9052a9.2734,9.2734,0,0,1-2.0146,3.2q-1.4648,1.6-2.3749,1.2982c-.1464-.1687-.22-.253-.3659-.4218s-.2189-.253-.3647-.4218a225.2723,225.2723,0,0,0-18.5575-15.49c-3.286-2.6334-4.9244-3.9584-8.1917-6.6245-4.1119-2.9647-6.1625-4.4573-10.2526-7.4627-3.5291-2.6754-5.2891-4.0212-8.8-6.7287-2.3593-1.941-6.0948-5.3451-11.1529-10.0129A127.0664,127.0664,0,0,0,426.3169,917.32a48.5579,48.5579,0,0,0-5.0819-3.2936c-3.4648-2.1446-6.0229-4.1436-7.5666-5.3-2.17-1.6258-3.617-2.7782-3.7809-3.5373.3272-.8459.4914-1.2685.8208-2.1131a14.2337,14.2337,0,0,0,.9746-2.0516,13.8749,13.8749,0,0,0,1.26-5.7683,10.5644,10.5644,0,0,1,2.1844-3.4779c.89-.914,1.6348-1.2508,2.2266-1.0078a79.2576,79.2576,0,0,0,17.1238,4.641c3.4334.5623,6.3252,1.038,8.5544,1.5126,25.7238,5.8608,51.8237,10.1868,77.7,15.3167l.4394.1945a2.6516,2.6516,0,0,1,1.2939,3.0181A10.1488,10.1488,0,0,1,519.8339,920.1065Zm-29.0129-3.9118c-22.185-6.0916-44.755-10.6492-67.3364-14.9814Q440.16,917.01,457.2628,932.309c9.8569,8.6615,16.3757,13.3929,19.3815,14.4893.5029.1835,2.2011-3.1625,5.244-9.9445,3.0412-6.7782,5.6655-12.7494,7.8161-17.9658C490.149,917.81,490.3723,917.2708,490.821,916.1947Z" transform="translate(-84.4734 -106.9474)" style="fill:#3dbacc"/><path d="M556.5005,848.909c-2.3033,1.232-6.6861,1.5014-13.18.8814a167.0515,167.0515,0,0,1-21.2375-3.244,113.1206,113.1206,0,0,0-19.1142-2.65c-5.708-.287-9.2613.3867-10.2781,2.3355-.1664.319-.25.4785-.4156.7977-2.0314,3.9045-2.3523,6.2182-1.0253,6.8871,10.407,5.2453,21.5407,9.522,32.2675,13.8706,8.8336,3.5812,14.2487,5.5336,16.0978,5.4417.5563,1.2927.8359,1.9379,1.3977,3.2261-.711,1.384-1.0647,2.0771-1.7684,3.4656-.8589.5619-1.2882.8439-2.1462,1.41-30.8708-13.2579-62.241-25.91-92.3381-40.7368a7.35,7.35,0,0,1-2.3686-1.707,6.0417,6.0417,0,0,1-.937-2.788,7.7353,7.7353,0,0,1,1.0122-4.5105c4.9183-9.7234,10.2366-16.8148,15.73-21.3,5.49-4.483,10.453-5.4238,14.8219-2.9651l10.1807,5.7294c1.7669.9945,3.5027,3.4525,5.2461,7.3343a79.8667,79.8667,0,0,1,4.2514,11.8681c.6575,2.1438.99,3.2133,1.6619,5.3471,10.6256,1.0754,21.288,1.8615,31.9152,2.839,15.3826,1.4149,23.5159,2.3737,24.5344,2.3142a2.6332,2.6332,0,0,1,1.0419-.2051,12.3775,12.3775,0,0,0,2.5706-.6062q2.9172-.5555,4.298.2548,1.9326,1.13.4054,3.7556C558.0718,847.1322,557.5472,847.7231,556.5005,848.909Zm-68.0821-9.6849a23.632,23.632,0,0,0-3.4729-10.1313c-4.1743-5.9568-7.9021-9.91-11.2686-11.7581a16.8141,16.8141,0,0,0-11.4848-2.3418c-4.4864.4375-9.03,4.8639-13.4054,13.3638a2.9565,2.9565,0,0,0,.0475,2.8869,4.8108,4.8108,0,0,0,2.0617,2.1208c6.37,3.2441,12.3543,5.9338,17.5349,8.2362,5.17,2.2979,11.02,5.2815,17.3843,8.5323.2235-.1569.3353-.2352.559-.3918A18.4416,18.4416,0,0,0,488.4184,839.2241Z" transform="translate(-84.4734 -106.9474)" style="fill:#3dbacc"/><path d="M577.2712,808.4346a12.1713,12.1713,0,0,0-1.0839,1.9365c-.4856.74-.7278,1.1109-1.2112,1.853-2.2163,3.4022-4.0495,5.2965-5.5459,5.66-.629-.4-.7742-1.3656-.423-2.9065.0306-.6412.0464-.962.0786-1.6036,1.7478-2.7176,2.629-4.0709,4.4061-6.7666.0313-.513.0471-.7695.0793-1.2827-.3575-.5033-.5361-.755-.893-1.259-.5788-.5169-.8681-.7756-1.4465-1.2931a156.8355,156.8355,0,0,0-15.0148-8.9174c-2.1024-1.1142-3.154-1.6705-5.2583-2.7815-4.0274-2.38-6.042-3.569-10.0732-5.9431q-5.2118-3.4329-15.1379-11.0509c-6.0631-4.2924-9.093-6.4411-15.15-10.743q-10.14-6.7074-16.35-8.9246a59.374,59.374,0,0,0-5.5657,7.67c-.6971,1.2034-1.0444,1.8058-1.7364,3.0124q-.8817,1.6852-2.06,3.5542c-2.1316,3.3866-3.9479,4.6148-5.4912,3.66-.3621-.224-.2264-1.26.42-3.101a21.9734,21.9734,0,0,1,1.99-4.3732c4.2977-6.7988,9.0461-13.4368,13.7145-19.8278a97.4258,97.4258,0,0,1,9.4283-11.1717c2.7-2.718,4.54-3.7466,5.4965-3.0672.1751.1245.3388.6269.4973,1.509-1.5682,2.4315-2.3469,3.6509-3.8935,6.0966-1.3634.8386-3.3666,3.1543-5.96,6.97-.1949.6287-.292.9431-.4855,1.572q1.7228.0239,7.55,3.9761,8.7421,5.9253,15.5919,10.935c6.17,4.4725,9.2567,6.7063,15.4335,11.1692,3.9766,2.6886,9.1958,5.5647,15.1,8.81,6.7118,3.6889,11.78,6.961,15.0428,9.18l1.72,1.17a12.0354,12.0354,0,0,0,2.2236,1.8518q3.0463,2.07,4.1772,1.8252l.1077.4107c.8825.6007,2.465-.7907,4.7925-4.1449q1.4279-2.0577,2.258-3.5136c.96-1.3659,1.4414-2.0473,2.4088-3.4073,3.1163-4.381,5.3151-6.1048,6.5218-5.2267a2.6284,2.6284,0,0,1,.9019,2.7063,9.5808,9.5808,0,0,1-1.8674,4.0987,38.7768,38.7768,0,0,1-2.82,3.4157,39.6909,39.6909,0,0,0-2.828,3.7544,20.2275,20.2275,0,0,0-2.1684,4.5451,23.6638,23.6638,0,0,1-2.0025,4.6478C580.3759,806.6265,578.5677,808.4085,577.2712,808.4346Z" transform="translate(-84.4734 -106.9474)" style="fill:#3dbacc"/><path d="M644.54,725.6045q-1.1527.438-3.3028-.7553c-6.8974-3.9717-11.2124-6.4251-12.8948-7.423-2.2862-1.2825-3.4308-1.9215-5.7229-3.1958a97.6026,97.6026,0,0,0-9.906,10.1687c-2.7494,3.0253-4.1142,4.5483-6.8235,7.6145-3.147,3.2929-5.36,5.7728-6.6679,7.3944-.7136.8847-.9221,1.5727-.6234,2.051.25.2.3132.3758.1967.5212.8573.9773,1.2863,1.4655,2.1449,2.4414,1.3811,1.3471,3.7274,4.5589,7.0914,9.5882a21.2989,21.2989,0,0,1,3.2173,6.7694q.7835,3.4056-.3971,4.9266a8.79,8.79,0,0,1-2.88,2.29q-1.87.9924-2.6339.4121l-.2144-.5107-.2133-.51a229.752,229.752,0,0,0-12.6907-20.4593c-2.2807-3.5226-3.4142-5.29-5.6672-8.8376-2.9557-4.1029-4.4253-6.1623-7.3478-10.2965-2.4963-3.6432-3.7377-5.471-6.2073-9.1386-1.6219-2.5772-4.0879-6.9643-7.4087-12.96a129.3626,129.3626,0,0,0-8.1941-13.46,49.5914,49.5914,0,0,0-3.7666-4.7315c-2.6-3.133-4.39-5.83-5.4859-7.4129-1.5428-2.2278-2.5471-3.7707-2.4672-4.5293.5686-.6772.8534-1.0154,1.4239-1.6909a13.5457,13.5457,0,0,0,1.55-1.5839,13.2379,13.2379,0,0,0,2.9644-4.9439,10.1139,10.1139,0,0,1,3.1287-2.5141c1.12-.5569,1.9245-.6252,2.4065-.2047a81.0111,81.0111,0,0,0,14.683,9.9484c3.0579,1.6522,5.6323,3.0453,7.5837,4.22,22.3943,13.9061,45.6278,26.5076,68.401,39.7775l.3535.3254a2.6309,2.6309,0,0,1,.2852,3.238A9.77,9.77,0,0,1,644.54,725.6045Zm-26.0983-13.1729c-18.9934-12.9571-38.8289-24.6214-58.7463-36.0833q10.82,20.1658,22.1972,39.9967c6.6052,11.2835,11.2813,17.8183,13.7717,19.8269.4165.336,3.0448-2.1991,7.9986-7.4869,4.9509-5.2849,9.2625-9.97,12.8965-14.1147C617.31,713.7133,617.6868,713.2856,618.4413,712.4316Z" transform="translate(-84.4734 -106.9474)" style="fill:#3dbacc"/><path d="M718.4875,653.1219a9.2952,9.2952,0,0,1-3.2114-1.0783,4.9781,4.9781,0,0,0-2.28-1.0172c-.0381-.2179-.0572-.3269-.0951-.5449-4.3421-2.9069-10.6888-5.6039-19.134-7.9262-3.7123-1.2034-5.5749-1.7948-9.3131-2.9572-.4308.0919-3.574-.7869-9.49-2.543-1.71-.5405-2.5669-.8086-4.2826-1.3406-17.17-5.3365-39.1348-14.7593-57.6181-12.2779.813,3.22,2.8352,6.4656,6.033,9.7513a58.4816,58.4816,0,0,0,4.68,4.3751c1.8273,1.7048,2.7407,2.5574,4.5667,4.2636.9839,1.1855,1.476,1.7781,2.4608,2.9629a22.8029,22.8029,0,0,0,2.4638,2.96,27.19,27.19,0,0,0,4.6645,3.9451c1.5966,1.3044,2.3943,1.9572,3.9888,3.2639-.2528.2452-.3791.3678-.6316.6132,6.877,6.9229,13.543,14.6342,21.9418,19.733l10.011,10.35a4.969,4.969,0,0,1,3.128,1.6511,2.7141,2.7141,0,0,1,.47,2.66,6.8082,6.8082,0,0,1-1.9812,3.2669c-2.74,2.68-6.1251,1.9947-10.1874-2.09-1.2867-1.6087-1.9295-2.4136-3.2139-4.0244a23.4773,23.4773,0,0,0-3.3208-4.142q-5.4074-5.454-16.84-15.7486-11.4444-10.2827-16.8763-15.711c-2.1825-2.1913-5.3306-5.7651-9.4021-10.7332-4.0033-4.8848-7.0854-8.4449-9.2643-10.6427l-1.4646-1.4772c-3.6784-3.71-4.7541-7.4613-3.1736-11.2439.4047-.1266.6069-.19,1.0115-.3158.8109-.97,1.2174-1.4537,2.0323-2.42a8.7759,8.7759,0,0,1,2.7037-1.2734c.8949-.2711,1.5347-.2137,1.9029.1706.4468.1037.67.1559,1.1165.26a1.5529,1.5529,0,0,0,.78.3609c12.0933,4.6466,25.2993,6.1512,37.8534,8.2812,11.5147,1.9537,23.915,3.7351,34.6407,7.6715a77.917,77.917,0,0,1,9.93,4.5775c8.6136,4.5926,16.3064,7.2735,23.1371,8.0317.0506-.2892.0758-.4338.1267-.7231-14.1922-25.5709-31.4543-49.1557-49.4891-72.1151-.5772-.5217-.866-.7825-1.4436-1.3038a5.77,5.77,0,0,1-1.5438-1.4285c-1.4-1.7478-.96-3.54,1.3407-5.3634a8.1466,8.1466,0,0,1,4.7146-1.88,3.9918,3.9918,0,0,1,3.5722,1.2713l6.5844,8.4592c-.1717.7827-.257,1.1741-.4265,1.9565,10.12,13.2583,19.2271,27.3678,28.2419,41.2943,6.3464,9.8043,15.8362,21.5631,18.8739,33.2339-1.2931,1.3652-1.9371,2.05-3.22,3.4222l.101.1243-.3133.0482c-.7286.84-1.0919,1.26-1.8167,2.1022A4.351,4.351,0,0,1,718.4875,653.1219Z" transform="translate(-84.4734 -106.9474)" style="fill:#3dbacc"/><path d="M779.65,605.5184c-1.3932-1.9179-2.09-2.8765-3.485-4.7934a53.6689,53.6689,0,0,1-3.4007-4.6571,11.28,11.28,0,0,1-1.2624-2.4254c-.54-1.0238-.8094-1.5359-1.3485-2.56-.5855-.89-2.1059-1.7044-3.0569-2.5849-7.5775-7.0161-15.9768-21.39-24.4347-31.6007-8.1261-9.81-16.4766-19.6207-24.0537-29.917-10.75,7.2271-17.9133,12.3157-21.6185,14.4574-3.5506,2.0523-5.8887,2.562-6.5826,1.6128.153-1.5638,1.4167-3.2162,3.8042-4.9361,5.1115-3.682,12.7121-8.9114,22.8626-15.1138,9.2621-5.6594,17.2005-10.3157,23.4392-14.2025,2.245-1.3987,3.3706-2.0936,5.6275-3.4744,2.2235-1.4355,3.3384-2.1488,5.5746-3.5669,3.2418-1.9474,5.2271-2.3058,5.9313-1.1134.3253.5508-.0051,1.3345-.9816,2.3488a18.9362,18.9362,0,0,1-3.883,2.9782q-5.3741,3.24-11.3875,6.6153c-4.64,2.75-6.9484,4.1436-11.5417,6.97-.7023.4553-.9636.8169-.789,1.0854a7.8137,7.8137,0,0,0,1.3957,2.719c8.6019,13.0756,18.9011,25.3077,28.6139,37.5126,9.68,12.1634,19.4832,24.6783,27.9389,37.7752.4031.6243.1139,1.6362-.8488,3.0148a12.1,12.1,0,0,1-3.2842,3.2713C781.588,605.1639,780.9423,605.2808,779.65,605.5184Z" transform="translate(-84.4734 -106.9474)" style="fill:#3dbacc"/><path d="M895.66,546.8812a33.8519,33.8519,0,0,1-9.3043-.2774c-3.0876-.64-7.1708-4.8562-12.1605-12.302a200.9254,200.9254,0,0,1-15.0656-26.5639c-1.0666-2.2926-2.0481-4.0745-2.6364-5.13-7.1238-12.78-12.9346-29.2786-21.8259-42.2871.32-1.13.4809-1.695.8055-2.8252,4.5589-1.7091,7.971.0051,10.2076,5.08q8.976,19.214,17.9193,38.4431a141.1269,141.1269,0,0,0,8.154,14.945c3.8588,6.3311,6.9489,11.39,8.3543,14.8612,4.4383,10.96,16.9182,13.7414,26.4569,8.7222,11.57-6.0878,6.1821-27.3762,3.5295-37.3946-.3389-1.24-.5079-1.86-.8459-3.1005-6.6555-20.6659-13.1779-41.4146-20.675-61.7966-.319-.4963-.4788-.7444-.7983-1.24a3.1569,3.1569,0,0,1-.7989-1.2392c-.4078-1.1,1.08-2.2855,4.4913-3.5252,2.4054-.8742,4.2631-1.156,4.8389-.721.7319.5528,1.5856,2.5506,2.479,5.0618q4.0761,11.4592,3.7133,16.006c.2466.32.37.4793.6162.799a34.3035,34.3035,0,0,1,1.2859,6.3383c.6338,2.4931.9518,3.7392,1.5894,6.2311l.542,1.5052a3.76,3.76,0,0,1,.8287,1.403c.4818,2.5472,1.492,5.1411,1.9242,7.13a29.8971,29.8971,0,0,0,.9121,3.4141c3.189,9.4166,5.7412,18.1062,7.8753,25.2285a51.34,51.34,0,0,1,1.7068,24.4393c-1.4891,7.8-6.3346,13.3241-14.68,16.71A31.9328,31.9328,0,0,1,895.66,546.8812Z" transform="translate(-84.4734 -106.9474)" style="fill:#3dbacc"/><path d="M1039.0569,502.6206a9.2691,9.2691,0,0,1-2.3449-2.487,4.9261,4.9261,0,0,0-1.5376-1.9865c.0752-.21.1131-.3147.1884-.5245-2.4417-4.6358-6.7905-10.0478-13.2037-16.1335-2.7278-2.8356-4.102-4.2475-6.8713-7.0589-.4322-.1254-2.8107-2.4028-7.2317-6.7779-1.2618-1.2938-1.895-1.9393-3.1652-3.2281-12.7179-12.923-27.7408-31.7433-45.35-38.3433-.8711,3.2228-.6773,7.0462.5436,11.4662a57.3361,57.3361,0,0,0,2.002,6.087c.7834,2.3736,1.1745,3.56,1.9561,5.9346.2891,1.5137.4341,2.27.7244,3.7838a22.3464,22.3464,0,0,0,.7285,3.7828,26.6665,26.6665,0,0,0,2.2009,5.701c.7761,1.9108,1.1633,2.8665,1.9364,4.7784-.3465.0951-.52.1427-.8664.2382,2.6964,9.3776,4.82,19.3625,9.7712,27.8517l3.7907,13.8933a4.9043,4.9043,0,0,1,1.9689,2.9476,2.7124,2.7124,0,0,1-.8993,2.5666,7.0625,7.0625,0,0,1-3.3826,1.93c-3.7666,1.0509-6.4383-1.1684-8.0335-6.7046-.35-2.0309-.5237-3.0465-.87-5.0781a23.0534,23.0534,0,0,0-.9073-5.2325q-2.115-7.3842-7.1984-21.9072-5.1-14.5173-7.2493-21.8915c-.8588-2.9715-1.8931-7.6214-3.06-13.94-1.1473-6.2124-2.13-10.8189-2.9819-13.7944-.2292-.8-.3437-1.2-.5729-2-1.4388-5.0232-.5423-8.84,2.7378-11.4152.4228.0817.6344.1227,1.057.2049,1.2023-.4663,1.8041-.6984,3.0092-1.16a9.0941,9.0941,0,0,1,3.0405.17c.932.1888,1.4738.5449,1.6115,1.0591.3468.3048.52.4573.8663.7624a1.5329,1.5329,0,0,0,.5162.69c8.5095,9.9031,19.5365,17.518,29.68,25.3783,9.3223,7.2237,19.5293,14.7093,27.1942,23.3222a77.1467,77.1467,0,0,1,6.6177,8.78c5.43,8.1635,10.9956,14.2062,16.7607,18.1483.191-.23.2866-.3448.478-.5746.1029-29.258-3.5529-58.2655-8.2243-87.095-.257-.7353-.3856-1.1029-.6431-1.838a5.6072,5.6072,0,0,1-.6706-1.9957c-.38-2.207.9195-3.5707,3.9143-4.067a8.6368,8.6368,0,0,1,5.2018.613,3.9812,3.9812,0,0,1,2.5809,2.8323c.6665,4.2361,1,6.3541,1.6663,10.59-.5508.6046-.8256.9073-1.3739,1.5129,2.4319,16.5043,3.5184,33.27,4.6154,49.8232.77,11.616,3.3742,26.6222.2418,38.2483-1.8533.5785-2.7781.8709-4.6239,1.4614l.0283.1577-.3063-.1079c-1.0786.3882-1.6173.5834-2.693.9758A4.5831,4.5831,0,0,1,1039.0569,502.6206Z" transform="translate(-84.4734 -106.9474)" style="fill:#3dbacc"/><path d="M1090.4044,439.0448c-.2351-2.228-.3525-3.3419-.5876-5.57-1.7923-15.3381-2.8573-44.9772,18.92-46.5245a30.5753,30.5753,0,0,1,4.6433.1437c7.1057.68,14.2567.8482,20.9087,1.0465,4.09.1219,8.4947,2.3041,12.7581,5.7748a34.9936,34.9936,0,0,1,10.6274,14.9619,56.0251,56.0251,0,0,1,3.6346,19.31c-.2488.323-.3729.4845-.6212.8077q.0684,5.2788.4341,9.4346c.1729,3.8384.2586,5.7576.4284,9.596a82.8653,82.8653,0,0,1-1.0277,14.7343,55.0925,55.0925,0,0,1-5.6542,17.2234,31.1411,31.1411,0,0,1-5.8083,7.3535,30.6055,30.6055,0,0,1-8.0752,5.0927,30.957,30.957,0,0,1-11.1043,2.4723C1100.5647,496.47,1092.887,461.8257,1090.4044,439.0448Zm54.4912,41.705a46.0819,46.0819,0,0,0,6.2669-18.4418,129.4026,129.4026,0,0,0,.8241-15.3863c-.1059-4.2634-1.0525-10.6712-2.36-18.8251a161.82,161.82,0,0,1-2.1293-18.8274c-.5311-.4969-.7968-.7452-1.3294-1.2411.2484-.3277.3727-.4915.6218-.819-.1415-4.69-2.9174-8.6792-8.4039-11.8743-5.49-3.197-12.1247-4.59-19.775-4.1012-10.0586.6427-15.8459,3.5213-17.38,8.3635a35.3161,35.3161,0,0,0-.6864,6.9657c.1256,7.3342.5337,13.2841-.46,16.2654a47.273,47.273,0,0,1-.2521,7.5746c.0274,3.018.0424,4.5269.0748,7.5446a56.1785,56.1785,0,0,0,.882,6.1856c.3577,2.5377.5362,3.8067.8918,6.3447a74.6254,74.6254,0,0,0,3.95,16.9954,67.2618,67.2618,0,0,0,5.1517,11.7649,25.9849,25.9849,0,0,0,7.333,7.9342,15.6341,15.6341,0,0,0,10.346,3.1651C1135.9493,489.8951,1141.4307,486.7358,1144.8956,480.75Z" transform="translate(-84.4734 -106.9474)" style="fill:#3dbacc"/></g></g><g id="shard09"><path d="M1953.5148,421.57c-21.7625-20.888-43.1365-39.693-63.6687-56.57-.32,2.508-.6673,5.0218-1.08,7.5486l-.0069.09q.5536,45.8355,1.107,91.671L1804.28,566.7965,1786,675l8,10,157.15-100.4252L2023,494.6375C2002.6606,471.1942,1979.58,446.5874,1953.5148,421.57Z" transform="translate(-84.4734 -106.9474)" style="fill:#bfbfbf"/><path d="M1944.5148,410.57C1922.5184,389.1914,1900.892,369.709,1880,352a85.1094,85.1094,0,0,1-.2341,9.5486l-.0069.09c-.2457,3.2238-1.0622,27.7106-2.759,85.3612l-81.72,108.7965L1786,675l156.15-101.4252L2014,483.6375C1993.2811,460.0583,1970.1783,435.5127,1944.5148,410.57Z" transform="translate(-84.4734 -106.9474)" style="fill:#fff"/><path d="M1819.8359,580.0562c-5.3628-5.3413-10.5592-10.3951-10.5593-10.3951-5.5276-5.3759-10.3749-9.988-14.2766-13.6611l-2.93,40.7667c6.8386,6.6208,13.8285,13.7068,20.8994,21.2772,7.9288,8.4891,15.2615,16.84,22.031,24.9561l28-18C1843.6985,604.3607,1828.39,588.5756,1819.8359,580.0562Z" transform="translate(-84.4734 -106.9474)" style="fill:#e3e0e0"/><g id="vuk_sign"><text id="_2021" data-name="2021" transform="translate(1712.0641 488.4959) rotate(46.697) scale(1.4264 1)" style="font-size:31px;fill:#fff;font-family:AmaticSC-Bold, Amatic SC;font-weight:700">2021</text></g></g><g id="shard08"><path d="M2173.5974,726.4559q-.2988-6.228-.5974-12.4559c-20.8035-34.3286-44.366-70.42-71.0273-107.6082-29.0433-40.51-58.0592-77.1549-86.1059-110.0739L1948.3489,583.2l-144.8954,101.291Q1779.7267,737.7453,1756,791l3,16q131.1049-24.9252,262.0656-50.5107Q2097.3483,741.5861,2173.5974,726.4559Z" transform="translate(-84.4734 -106.9474)" style="fill:#bfbfbf"/><path d="M2173.291,713.725a1120.0943,1120.0943,0,0,0-161.6024-232.2825l-69.2035,87.7107L1784,673l-27.963,118.1963c85.82-18.6321,171.1734-30.2235,260.94-47.1318C2070.1929,733.6908,2121.3911,724.6711,2173.291,713.725Z" transform="translate(-84.4734 -106.9474)" style="fill:#fff"/><path d="M1859.2783,622.1188,1833,640c15.0151,16.8171,30.6135,35.6415,46.2673,56.5627C1896.0228,718.9562,1910.5051,740.6292,1923,761l33-6c-13.2611-22.3971-28.8036-46.3551-46.99-71.16C1892.1941,660.905,1875.4055,640.3658,1859.2783,622.1188Z" transform="translate(-84.4734 -106.9474)" style="fill:#e3e0e0"/><g id="vuk_sign-2" data-name="vuk_sign"><text id="vukain" transform="translate(1770.8324 551.5812) rotate(53.4924) scale(1.3609 1)" style="font-size:35.962039947509766px;fill:#fff;font-family:AmaticSC-Bold, Amatic SC;font-weight:700">vukain</text></g></g><g id="shard07"><path d="M107,1257H95.2955q3.1518,50.1852,5.9622,100.3958Q103.7651,1402.1935,106,1447l4,14,36,7,123-56,150,14,111-49q1-7,2-14l-191-94Z" transform="translate(-84.4734 -106.9474)" style="fill:#bfbfbf"/><path d="M85,1238c-.0681,28.7231,1.0628,59.8456,4,93a1026.4859,1026.4859,0,0,0,17,116l38,8,123-58,149,13,116-47L336,1256l-230.9225-9.2Z" transform="translate(-84.4734 -106.9474)" style="fill:#fff"/><path d="M329.695,1403.1191c-4.8846-22.6219-9.2756-47.3944-12.6338-74.1182-3.3133-26.3677-5.1818-51.1394-6.0612-74.0009l-31.1992-1.6267c.9008,22.93,2.6817,47.5127,5.693,73.5087C288.56,1353.3557,292.5347,1378.1154,297,1401Z" transform="translate(-84.4734 -106.9474)" style="fill:#e3e0e0"/></g><g id="shard06"><path d="M2274.4958,1017.0254a1109.171,1109.171,0,0,0-96.6745-285.5494C2127.0728,741.8112,2077.0276,750.2448,2025,760c-87.7552,15.8706-171.1531,26.5173-255.0747,44.1341L1769,807,1609,924l-275,87-108,65q1,7.5,2,15l359,57,601,115,103,51A1109.1385,1109.1385,0,0,0,2274.4958,1017.0254Z" transform="translate(-84.4734 -106.9474)" style="fill:#bfbfbf"/><path d="M2273.2358,999.7827A1129.16,1129.16,0,0,0,2228.32,837.0308c-13.784-38.2235-24.3682-64.6934-36.4656-88.8014C2183.8516,732.2808,2176.4722,719.2575,2171,710l-417,78L1599.0686,906.6813l-278.5832,87.0711L1226,1076l360.9122,56.866,598.7006,113.0924L2292,1297C2299.97,1169.92,2286.6477,1067.9182,2273.2358,999.7827Z" transform="translate(-84.4734 -106.9474)" style="fill:#fff"/><path d="M2084.165,1219c0-121.9775-23.8632-240.3154-70.9267-351.7251a902.8858,902.8858,0,0,0-60.2539-117.7969l-32.3557,7.4A868.1292,868.1292,0,0,1,2053.165,1219c0,.5325-.0092,1.0626-.01,1.5947l30.9587,6.8177C2084.1389,1224.6094,2084.165,1221.8068,2084.165,1219Z" transform="translate(-84.4734 -106.9474)" style="fill:#e3e0e0"/></g><g id="shard05"><path d="M1594,1128l3,26q111.5,92.5,223,185l100-30,371,5q.5-6,1-12l-109-44-541-104Z" transform="translate(-84.4734 -106.9474)" style="fill:#bfbfbf"/><path d="M1594,1128q113,98.5,226,197l97-29,375,6v-7l-105-55Z" transform="translate(-84.4734 -106.9474)" style="fill:#fff"/><path d="M2053,1213q.011,25.4959-1.1492,52.8042-.7226,16.43-1.8508,32.16L2081,1299q1.3351-18.2831,2.1216-37.7123.8573-21.7012.8784-42.0708Z" transform="translate(-84.4734 -106.9474)" style="fill:#e3e0e0"/></g><g id="shard04"><path d="M1603,1158l-377-59-1.0637.7269L1106,1183l-260,11L634,1348l-37,17q1,7,2,14l800,97,434-129v-18Z" transform="translate(-84.4734 -106.9474)" style="fill:#bfbfbf"/><path d="M1588,1119l-358-47-140,92-262,14L597,1365l801,97,435-133Z" transform="translate(-84.4734 -106.9474)" style="fill:#fff"/></g><g id="shard03"><path d="M1600,1520l-210-43-12-18,544-148,360-10q-.5,6.5-1,13l-138,39-288,147Z" transform="translate(-84.4734 -106.9474)" style="fill:#bfbfbf"/><path d="M1598,1506l-220-47,537-166,367,8-144,41-286.6483,145.7157Z" transform="translate(-84.4734 -106.9474)" style="fill:#fff"/><path d="M2050,1296q-2.1855,22.14-5.451,45.7334c-2.5379,18.158-5.4218,35.5925-8.549,52.2666l35-18q3.3681-21.0532,6.1375-43.5748Q2079.4087,1313.78,2081,1296Z" transform="translate(-84.4734 -106.9474)" style="fill:#e3e0e0"/></g><g id="shard02"><path d="M2150.4443,1340.0183l-282.0926,144.6974L1589,1504l-205-43q2.5,9.5,5,19l209,120,168,39,244-2,186,49a936.3456,936.3456,0,0,0,96-386Z" transform="translate(-84.4734 -106.9474)" style="fill:#bfbfbf"/><path d="M2149,1328l-282,145-277,14-206-26,214,123,166,39,246-2,186,51a946.7524,946.7524,0,0,0,97-389Z" transform="translate(-84.4734 -106.9474)" style="fill:#fff"/><path d="M2072.1433,1367.0186,2037.2,1385.5923A866.796,866.796,0,0,1,1955.0133,1621h35.1619q12.26-24.7152,23.0631-50.2744A895.3867,895.3867,0,0,0,2072.1433,1367.0186Z" transform="translate(-84.4734 -106.9474)" style="fill:#e3e0e0"/></g><g id="shard01"><path d="M1942,1670l63,70,130,57a851.3884,851.3884,0,0,0,43-74c8.1338-15.7742,15.436-31.1478,22-46v-14l-187.5737-39.8474L1764,1623q.5,6.5,1,13Z" transform="translate(-84.4734 -106.9474)" style="fill:#bfbfbf"/><path d="M1946.2,1659.8187l63.6459,70.3223,122.7258,54.62C2147.08,1762.3322,2161.7283,1737.7546,2176,1711q13.1294-24.613,24-48l-186-51-250,11Z" transform="translate(-84.4734 -106.9474)" style="fill:#fff"/><path d="M1959,1614c-3.3816,6.9283-7.3491,14.3318-12.0073,22.0391-4.679,7.7415-9.4109,14.7241-13.9927,20.9609l13,3q6.5,7,13,14c6.0463-8.4054,12.2664-17.8,18.39-28.202A368.2352,368.2352,0,0,0,1995,1612q-8.4567.5221-17,1Q1968.45,1613.534,1959,1614Z" transform="translate(-84.4734 -106.9474)" style="fill:#e3e0e0"/></g><g id="shard00"><path d="M1578,1628,537,1421l-110,25-148,7-122,44-51-52c19.8477,103.8374,84.4953,364.4,313.2547,586.19,316.6022,306.955,708.8472,308.2121,786.6844,306.7863,231.0017-4.2317,407.0775-81.6333,499.6721-131.2624C1951.8915,2074.7112,2082.2224,1884.8018,2135,1797q.5-8.5,1-17l-147-8-85-72Z" transform="translate(-84.4734 -106.9474)" style="fill:#bfbfbf"/><path d="M1601.9938,1576.6605l-212.9963-121.82L596,1362.9952,531,1361,416.999,1406.938l-149-12.977-123.0017,56.9226-39-5.99c21.7361,105.5405,89.1643,357.8084,312.9048,571.6288,306.4681,292.88,683.4245,300.7859,786.5181,298.9,245.8293-4.4973,426.9926-89.8076,499.7347-128.3193,246.8926-130.7121,377.8407-320.218,430.8323-407.7469l-120.9983-54.9181-66.9979-69.8984Z" transform="translate(-84.4734 -106.9474)" style="fill:#fff"/><path d="M1949,1654l-13-2c-40.1086,67.7311-134.3646,206.1743-310.7762,309.5215-79.7229,46.7041-239.65,119.9319-443.5588,119.9319-417.4806,0-767.33-291.13-851.97-678.4237q-.3476-2.03-.695-4.059L298,1396v1a847.25,847.25,0,0,0,52.0918,171.1846,870.6,870.6,0,0,0,72.1638,134.8766A903.5335,903.5335,0,0,0,830.36,2042.0193C941.6367,2088.4551,1059.8325,2112,1181.665,2112s240.0284-23.5449,351.3047-69.9807A900.2791,900.2791,0,0,0,1962,1669Z" transform="translate(-84.4734 -106.9474)" style="fill:#e3e0e0"/><g id="variant_due"><path d="M400.951,1515.6825c11.5728-4.6741,21.5967-12.5026,31.3748-19.9209,14.7691-11.2048,28.9831-23.5671,43.1457-35.7341,1.586-1.5185,2.3806-2.2749,3.9734-3.7825,2.322-2.3624,3.4874-3.5372,5.8262-5.8735a14.4788,14.4788,0,0,1,3.43-2.922q.4577-.1466,1.5384.8646a5.0561,5.0561,0,0,1,1.4367,2.0974c.8289,2.5417-.0784,5.0486-2.7211,7.5621a39.0506,39.0506,0,0,1-3.7777,3.5651c-1.4465,1.2052-2.4738,2.257-3.043,2.7268-1.1141.9193-2.2023,1.4725-2.44,1.7621-6.5682,6.171-10.7236,10.0821-12.5692,11.5821-2.6789,2.2146-4.015,3.3278-6.6807,5.5651-2.5254,2.059-3.7853,3.0931-6.3,5.1714-2.6947,2.1442-4.0392,3.2214-6.7222,5.3861a32.4164,32.4164,0,0,0-6.2,4.9221c-5.2343,3.9273-7.8425,5.9075-13.04,9.9007a80.58,80.58,0,0,0-6.84,4.9763c-2.6126,1.9532-3.9167,2.9337-6.5206,4.9023,11.0121,1.8759,22.6335.3577,33.4118-1.56a301.056,301.056,0,0,1,41.4216-3.9628c12.2294-.4468,21.1248-1.139,26.5924-1.6691.8758,1.2165,1.3149,1.823,2.1958,3.0323a7.1711,7.1711,0,0,1,.2662,2.1876c-.0262.7269-.1861,1.16-.4779,1.29-2.1446.9553-5.4112,1.49-9.81,1.5571-1.7989.0443-2.6988.0643-4.5.1-5.4142.2393-8.1254.3412-13.5556.5094-7.5262.049-13.235.2371-17.0976.6709q-5.8.6516-16.3711,2.7267c-1.4535.3369-2.18.5049-3.6346.84q-8.5741,1.8718-11.6857,2.2923a36.3693,36.3693,0,0,1-8.6244-.3947c-3.5-.4448-6.7358-.5975-9.4077-.68-1.462.3069-2.1931.46-3.6558.7643a32.03,32.03,0,0,1-10.1765,1.2406c-3.9665-.2431-6.9807-2.8911-8.84-7.8078C400.9007,1518.0143,400.9162,1517.2367,400.951,1515.6825Zm13.3077,2.6217-.4146-.1869c-.073.1664-.11.25-.1826.416Z" transform="translate(-84.4734 -106.9474)" style="fill:#3dbacc"/><path d="M464.5653,1648.7573q-.1779-1.39,1.5544-3.1671c5.7029-5.6365,9.3-9.094,10.7409-10.43,1.8849-1.843,2.8288-2.7625,4.72-4.5976q-2.7831-6.3066-7.0631-13.8926c-2.0848-3.9739-3.1137-5.9695-5.1436-9.978-2.0988-4.5382-3.6564-7.8349-4.72-9.8607-.58-1.1051-1.1554-1.6313-1.7221-1.5669-.284.1482-.4748.1266-.57-.0556-1.2507.37-1.8763.5543-3.1278.9223-1.8006.6989-5.7384,1.4527-11.8316,2.2007a19.4714,19.4714,0,0,1-7.7317-.3621c-2.3912-.7013-3.9327-1.7485-4.6063-3.0946a11.5284,11.5284,0,0,1-1.0817-4.1522c-.1429-1.6118.0787-2.5583.6529-2.84.2292.0311.3439.0465.5731.0773s.3434.0464.5722.0773a152.0816,152.0816,0,0,0,24.4318-1.5666c4.2169-.4566,6.3225-.6944,10.5281-1.189,5.0025-.9034,7.5-1.3666,12.4871-2.3157,4.3634-.7625,6.5421-1.1528,10.8932-1.9515,3.0123-.4569,8.0185-.9779,14.7937-1.8041a109.29,109.29,0,0,0,15.4372-2.714,49.8875,49.8875,0,0,0,5.7468-1.8239c3.8455-1.313,6.9595-2.0705,8.8108-2.5622,2.6182-.6954,4.3713-1.125,5.0145-.8421.3767.6835.5655,1.025.9441,1.7072a10.2507,10.2507,0,0,0,.8095,1.7819,10.1353,10.1353,0,0,0,3.2946,3.8935,8.1631,8.1631,0,0,1,1.0986,3.3764c.0913,1.1214-.1369,1.8462-.6908,2.1662a84.534,84.534,0,0,0-14.237,10.5373c-2.569,2.3252-4.72,4.2962-6.4582,5.7622-20.4285,16.7628-39.1482,35.6186-57.6563,54.4364l-.4092.2518a2.7864,2.7864,0,0,1-3.383-.9269A12.5255,12.5255,0,0,1,464.5653,1648.7573Zm19.9556-21.72c18.0729-14.1814,35.6076-29.0633,53.3217-43.6856q-22.4674,3.7608-45.0128,6.8357c-12.9885,1.7456-20.9487,3.1986-23.78,4.6876-.4737.2491.9045,3.9673,4.292,11.0755,3.3856,7.104,6.6159,13.2328,9.6213,18.4131C483.5839,1625.4341,483.8956,1625.9689,484.5209,1627.0369Z" transform="translate(-84.4734 -106.9474)" style="fill:#3dbacc"/><path d="M515.3434,1725.2074c-.4458-2.86.815-7.2828,3.8323-13.2078a124.2312,124.2312,0,0,1,11.3786-18.4865,137.4018,137.4018,0,0,0,10.5217-16.2646c2.7588-5.012,3.7849-8.4466,2.5321-10.2164-.205-.29-.3075-.4346-.5122-.7245-2.5042-3.5466-4.3561-4.9117-5.5746-4.06-9.5575,6.6792-18.5784,14.4983-27.3828,22.0024-7.2533,6.1821-11.4414,10.1652-12.14,11.9527-1.4744-.2047-2.212-.3089-3.6878-.5213-1.0212-1.4622-1.53-2.1949-2.5433-3.6634-.1577-1.13-.2353-1.6948-.3886-2.8242,26.3911-20.7985,52.8651-41.8267,80.6428-60.6782a8.3742,8.3742,0,0,1,2.6189-1.2689,5.83,5.83,0,0,1,2.7323.3208,6.0829,6.0829,0,0,1,3.1094,2.5573c5.3227,7.7254,8.65,14.585,9.9,20.7694,1.25,6.1816-.0542,10.7964-4.0517,13.8217l-9.315,7.0493c-1.6168,1.2235-4.5065,1.92-8.68,2.0393a64.9674,64.9674,0,0,1-12.35-.81c-2.1912-.2835-3.2878-.43-5.4826-.7317-5.6888,9.0723-10.8614,18.4891-15.8755,27.9379-7.3119,13.7784-10.92,21.3586-11.21,22.3781a2.7884,2.7884,0,0,1-.1516,1.1108,12.6447,12.6447,0,0,0-.26,2.7944c-.2772,2.0772-.8266,3.45-1.6655,4.1073-1.1749.92-2.4847.4638-3.9127-1.3753C516.5894,1727.6145,516.1725,1726.8127,515.3434,1725.2074Zm36.3913-58.9006a21.9206,21.9206,0,0,0,10.4516,1.0706c7.0741-1.3454,12.1341-3.217,15.2207-5.5017a22.18,22.18,0,0,0,4.47-4.1822,21.656,21.656,0,0,0,2.7118-4.9531c1.6892-4.008.0859-9.3334-4.6849-16.153a2.5235,2.5235,0,0,0-2.3858-1.0449,5.3044,5.3044,0,0,0-2.7767.91c-5.8752,4.0717-11.0923,8.0363-15.5874,11.5-4.4874,3.4579-9.8688,7.2058-15.7375,11.2834.0295.2661.0441.3993.0739.6655A16.7983,16.7983,0,0,0,551.7347,1666.3068Z" transform="translate(-84.4734 -106.9474)" style="fill:#3dbacc"/><path d="M550.9443,1763.0609a16.3245,16.3245,0,0,0-1.7767-1.7932c-.6617-.76-.9919-1.1411-1.6514-1.9037-3.0233-3.4964-4.5162-6.09-4.5131-7.7391.5691-.481,1.5959-.2554,3.0906.6751.6506.2708.9759.4058,1.6266.6747,2.3621,2.7646,3.5506,4.14,5.9425,6.8753.5231.2088.7846.313,1.3077.5207.598-.1914.8969-.2873,1.4945-.4795.66-.4128.9893-.62,1.6485-1.0327a150.2659,150.2659,0,0,0,12.5-12.1985c1.62-1.7445,2.43-2.6161,4.0528-4.3579,3.3566-3.2589,5.0362-4.8869,8.3977-8.14q4.7-4.1061,14.6719-11.6621c5.739-4.7166,8.6066-7.0772,14.338-11.8028q9.14-8.0174,13.0437-13.2783a53.1855,53.1855,0,0,0-5.0511-6.581c-.8377-.8824-1.2556-1.3247-2.09-2.2112a35.41,35.41,0,0,1-2.436-2.6445c-2.2489-2.6848-2.659-4.615-1.2589-5.7694.3285-.2709,1.1849.0962,2.5662,1.0918a17.508,17.508,0,0,1,3.1341,2.75c4.4754,5.3216,8.8421,10.8829,13.1745,16.1777a95.0823,95.0823,0,0,1,7.4291,10.3073c1.7515,2.8488,2.2427,4.6738,1.3874,5.4765a3.0242,3.0242,0,0,1-1.4993.2719c-1.8307-1.7661-2.7424-2.6538-4.5586-4.438-.403-1.3825-1.9744-3.5622-4.681-6.5708-.5123-.2823-.7685-.4236-1.2806-.7072q-.5189,1.5789-5.7572,6.2816-7.86,7.0541-14.3628,12.5049c-5.8241,4.914-8.7381,7.3688-14.57,12.2736-3.5761,3.202-7.639,7.5664-12.1885,12.5321-5.1705,5.6434-9.5437,9.8082-12.4759,12.4482l-1.546,1.3918a11.0579,11.0579,0,0,0-2.3478,1.6966q-2.7381,2.4632-2.7034,3.6917l-.4468-.0171c-.793.7146.3384,2.78,3.4385,6.1594q1.9018,2.0732,3.2966,3.3359c1.2752,1.3738,1.9148,2.0586,3.1977,3.4245,4.1333,4.4,5.6978,7.0821,4.6214,8.1156q-1.04.9982-2.9775.247a11.8646,11.8646,0,0,1-4.101-3.0377,44.909,44.909,0,0,1-3.2094-3.8861c-.9719-1.2881-2.2378-2.6417-3.5155-4.03a27.6478,27.6478,0,0,0-4.4106-3.6408,28.3819,28.3819,0,0,1-4.51-3.5716C552.1594,1766.8859,550.6926,1764.3938,550.9443,1763.0609Z" transform="translate(-84.4734 -106.9474)" style="fill:#3dbacc"/><path d="M636.1973,1850.1536q-.6-1.2407.473-3.4746c3.5983-7.154,5.8982-11.5745,6.8351-13.2992,1.1955-2.3456,1.7953-3.5171,2.9991-5.8573q-4.5732-4.9716-10.9441-10.63c-3.1894-3.0151-4.7737-4.5338-7.9206-7.5934-3.3756-3.53-5.8575-6.0792-7.4818-7.61-.8861-.8352-1.5886-1.1327-2.1-.8841-.22.2324-.406.2759-.5513.1382-1.0582.7606-1.5876,1.1406-2.6472,1.9-1.4719,1.25-4.9307,3.2629-10.4121,5.9895a19.6222,19.6222,0,0,1-7.3608,2.2421c-2.4585.146-4.2279-.3124-5.2757-1.3375a10.97,10.97,0,0,1-2.2978-3.4938c-.6322-1.4481-.7171-2.4-.266-2.854.2245-.0477.3368-.0718.5612-.12l.56-.12a154.93,154.93,0,0,0,22.4186-9.6134c3.8122-1.8311,5.7127-2.7544,9.5027-4.6165,4.41-2.508,6.6088-3.771,10.991-6.3155,3.8552-2.163,5.7771-3.2519,9.61-5.4441,2.6831-1.4282,7.2159-3.58,13.3136-6.6031a111.4061,111.4061,0,0,0,13.6363-7.6609,50.9985,50.9985,0,0,0,4.8242-3.6092c3.2-2.5018,5.8846-4.241,7.4693-5.3147,2.243-1.52,3.751-2.5,4.442-2.45.5655.5121.8486.7677,1.4154,1.2782a12.3268,12.3268,0,0,0,5.6121,3.9323,7.8414,7.8414,0,0,1,2.08,2.7872c.434,1.0166.4452,1.7689.0251,2.2512a86.2012,86.2012,0,0,0-10.0835,14.5539c-1.6878,3.0222-3.0932,5.5749-4.2685,7.52-13.9518,22.41-25.6548,46.2272-37.169,69.9483l-.3058.3706a2.7628,2.7628,0,0,1-3.4644.2491A12.11,12.11,0,0,1,636.1973,1850.1536Zm11.97-26.8982c12.5467-19.2246,24.3753-38.9283,36.4538-58.4469q-19.9049,10.9582-40.1,21.3194c-11.64,5.9451-18.6537,9.9486-20.8479,12.277-.367.3894,2.0762,3.3872,7.4577,8.8843,5.3785,5.4939,10.3126,10.142,14.7429,13.9846C646.79,1822.0682,647.2483,1822.4646,648.1672,1823.2554Z" transform="translate(-84.4734 -106.9474)" style="fill:#3dbacc"/><path d="M732.9565,1918.726a9.0225,9.0225,0,0,1-.2129-3.5191,4.826,4.826,0,0,0,.1246-2.5608c.207-.0969.3105-.1455.5174-.2425,1.237-5.1346,1.5051-12.1911.9848-21.1421-.0467-3.9828-.0583-5.9711-.0575-9.9412-.2232-.3994-.3488-3.7217-.2756-9.941.0532-1.8063.0823-2.7089.1451-4.5124.9-17.986,5.5118-40.233,1.0011-58.0219a24.6447,24.6447,0,0,0-8.4286,7.7077,61.926,61.926,0,0,0-3.5651,5.3222c-1.3871,2.0782-2.08,3.1178-3.4658,5.1971-1.0022,1.17-1.5037,1.7543-2.5068,2.923a23.7526,23.7526,0,0,0-2.5084,2.9217,27.3142,27.3142,0,0,0-3.1334,5.2431c-1.0248,1.7886-1.5365,2.6831-2.5586,4.4735-.2846-.2089-.4268-.3134-.7112-.5225-5.6879,7.9141-12.287,15.7724-15.72,24.98-3.4,4.649-5.1,6.9736-8.5,11.6227a4.6434,4.6434,0,0,1-.9742,3.4492,2.7061,2.7061,0,0,1-2.7108.7941,8.4993,8.4993,0,0,1-3.9764-1.7353c-3.5286-2.6118-3.5446-6.24-.0792-10.8415,1.4307-1.4866,2.1453-2.23,3.5734-3.7189a21.2233,21.2233,0,0,0,3.662-3.8521q4.6107-6.1422,13.1182-18.9625,8.5235-12.8094,13.1628-18.93,2.7937-3.7037,9.2526-10.8589,6.3422-7.0305,9.1313-10.751c.5-.6654.7493-.9981,1.2488-1.6635,3.1366-4.1785,6.5-5.9173,10.0794-5.2607.1488.349.2232.5236.3725.8725.9534.5441,1.43.8153,2.3855,1.3553a7.0979,7.0979,0,0,1,1.4177,2.2218,1.7881,1.7881,0,0,1,.0381,1.807c-.0482.4392-.0722.6589-.12,1.0983a1.6862,1.6862,0,0,0-.2457.8092c-2.962,12.37-2.348,25.1377-1.76,37.651.5487,11.68,2.0435,23.9869,1.5145,35.3242a90.8919,90.8919,0,0,1-1.2838,10.9424c-1.62,9.704-1.398,18.0789.644,25.0617.3114-.0356.467-.0535.7783-.0893,19.7626-21.59,35.5625-46.3288,50.6722-71.2834.2974-.7167.4462-1.075.7443-1.7913a6.477,6.477,0,0,1,.8285-1.9276c1.1461-1.9238,2.8088-2.2329,5.0048-.94a6.5689,6.5689,0,0,1,2.9283,3.3791,4.1324,4.1324,0,0,1-.0623,3.6618l-5.3566,9.2856c-.7385.1651-1.1082.2472-1.8478.41-8.511,14.3513-18.2034,27.9838-27.8682,41.5391-6.7086,9.4093-14.5231,22.8624-24.7367,29.2416-1.961-.8715-2.94-1.3106-4.897-2.1956l-.0829.137-.1852-.2994c-1.1723-.4862-1.7581-.73-2.9291-1.2215A5.409,5.409,0,0,1,732.9565,1918.726Z" transform="translate(-84.4734 -106.9474)" style="fill:#3dbacc"/><path d="M811.5759,1959.3156c.9018-2.1932,1.3531-3.29,2.2565-5.4822a47.638,47.638,0,0,1,2.192-5.3356,10.35,10.35,0,0,1,1.4453-2.3243c.6053-.9878.9077-1.4817,1.5122-2.47.4566-.9627.3018-2.725.5437-3.9949,1.8967-9.959,10.02-24.7451,14.5213-37.2207,4.3218-11.9772,8.7-24.0908,13.86-35.7778-10.206-4.9686-17.0086-8.6178-20.0915-10.7235-2.9591-2.0211-4.1838-3.7964-3.6275-4.8323,1.3556-.6019,3.15-.3051,5.4011.8832,4.8186,2.5439,11.8365,6.3462,20.8741,11.2905,8.2481,4.5125,15.3858,8.1493,21.2221,10.7413,2.1.9328,3.1525,1.3949,5.2611,2.3108,2.134.8571,3.2029,1.2813,5.3442,2.1209,3.0234,1.2838,4.2756,2.552,3.7438,3.8307-.2457.5907-.9924.83-2.234.7135a14.0637,14.0637,0,0,1-4.1472-1.1452q-5.0689-2.1615-10.4647-4.914c-4.2681-2.0439-6.3924-3.083-10.621-5.1962-.6649-.31-1.0629-.32-1.1986-.03a8.8442,8.8442,0,0,0-1.5378,2.6368c-6.5844,14.2233-11.6235,29.2988-16.744,44.0958-5.0991,14.735-10.1643,29.7854-16.5529,43.99-.3046.6771-1.4092.9418-3.2868.7783a14.97,14.97,0,0,1-5.0986-1.3153C813.1161,1960.8956,812.6017,1960.37,811.5759,1959.3156Z" transform="translate(-84.4734 -106.9474)" style="fill:#3dbacc"/><path d="M933.2542,2004.0858c1.5534-6.8122,3.4306-16.3325,6.5557-27.0889q2.9466-10.1413,5.5543-18.0485c2.2184-7.22,3.3262-10.8311,5.539-18.0533,2.7917-9.643,5.0325-19.431,7.3031-29.2054-1.3619-1.2853-1.8548-2.5457-1.4922-3.7736q.3161-1.0705,2.9043-1.5647a9.6283,9.6283,0,0,1,4.4347.03,7.43,7.43,0,0,1,3.6314,2.3545c1.0151.8809,1.5242,1.32,2.5458,2.1974a40.4556,40.4556,0,0,0,5.8991,2.5826,60.0356,60.0356,0,0,1,6.2052,2.6009,68.5376,68.5376,0,0,1,9.65,7.48,91.7288,91.7288,0,0,0,7.9624,6.7627c-.1379.1-.2071.15-.3451.25.0407.6656,1.1063,2.3821,3.2516,4.9792a54.474,54.474,0,0,1,4.0819,5.4563c1.9731,5.43,2.2369,11.9577.682,19.5867a20.68,20.68,0,0,1-1.024,3.547c-.3074,1.505-.4611,2.2576-.7684,3.7626l-.2561,1.2545c-.2445.6033-.367.9047-.6119,1.5078a6.38,6.38,0,0,0,.8013,5.0613c-1.8532,3.11-4.6139,9.1336-8.355,18.0513a41.86,41.86,0,0,1-4.8378,7.9755,25.3569,25.3569,0,0,1-6.8094,6.3869c-8.9524,5.3579-19.7536,5.7756-29.8,6.5676-8.6253-2.2074-12.9181-3.37-21.4607-5.81C932.8642,2008.4709,932.65,2006.7339,933.2542,2004.0858Zm22.6271,5.8515a39.0525,39.0525,0,0,1,4.49-1.0024c.9346-.0943,1.4017-.1421,2.3353-.2392,1.0874-.1908,1.63-.2873,2.7161-.4817,16.4529-2.3947,26.5644-17.3057,29.6259-32.5646.2574-1.1887.3862-1.7828.6437-2.9714a11.8157,11.8157,0,0,1,.2846-2.7215c.9048-6.4189,1.3622-9.6273,2.2873-16.0424.7518-6.167-1.1992-13.1311-5.5892-20.9485a32.3218,32.3218,0,0,0-9.2-10.5374c-4.1147-3.1731-11.0457-7.3879-13.6663-6.7982-4.8178,1.0841-8.8073,19.0221-11.143,27.6357-5.1921,19.147-10.04,38.67-12.3476,58.5064-.4409,1.14-.6617,1.71-1.1034,2.85.4523.2565.6786.3844,1.1316.64.025.869.0379,1.3036.0643,2.1728C950.1912,2008.4589,952.0854,2008.9594,955.8813,2009.9373Z" transform="translate(-84.4734 -106.9474)" style="fill:#3dbacc"/><path d="M1059.5116,2034.035a38.2357,38.2357,0,0,1-9.2272-5.1141c-2.702-2.19-4.2763-7.9756-4.7088-16.9553a172.6855,172.6855,0,0,1,1.2806-30.5287c.3355-2.5084.4613-4.5376.5334-5.7433.8761-14.64,4.7564-31.5724,4.6539-47.352.7965-.7874,1.1937-1.1817,1.9864-1.9712,4.1837.9367,5.9115,4.1262,5.156,9.62q-2.461,21.0632-4.8851,42.13a127.9215,127.9215,0,0,0-.7713,17.0109c.0682,7.4161.0953,13.26-.3941,17.0575-1.6671,12.9365,9.6748,20.7163,21.5489,20.8651,14.657.1836,19.5065-20.63,21.5421-31.8148.2222-1.2668.3333-1.9.5545-3.1672,2.6721-21.5482,5.3368-43.1256,6.9775-64.7828-.07-.5829-.1045-.8744-.1737-1.4573a3.5,3.5,0,0,1-.1727-1.4564c.0879-1.1695,1.71-1.6327,4.8839-1.4177,2.2378.1516,3.83.6156,4.139,1.2308.4112.8173.3809,2.9635.2176,5.6237q-.7453,12.1389-2.7348,16.1828c.0912.3907.137.5859.2284.9764a35.378,35.378,0,0,1-1.2821,6.3313c-.3987,2.54-.5989,3.81-1.0017,6.3493l-.1044,1.5963a3.8692,3.8692,0,0,1,.1913,1.6164c-.5635,2.5287-.6761,5.3078-1.0749,7.3054a30.26,30.26,0,0,0-.5314,3.4934c-.8552,9.9043-2.0328,18.8888-2.9883,26.26-1.1886,9.1707-4.3454,16.8811-9.2683,22.9134-5.2208,6.3975-13.197,9.2273-23.6995,8.116A39.2168,39.2168,0,0,1,1059.5116,2034.035Z" transform="translate(-84.4734 -106.9474)" style="fill:#3dbacc"/><path d="M1154.9248,2037.7527c.0009-.832.0012-1.2481.0021-2.08a5.1364,5.1364,0,0,0,.327-1.92c-.52-.256-.7795-.3841-1.2986-.6409a10.7358,10.7358,0,0,0,2.5928-6.56,84.0725,84.0725,0,0,0-.9644-10.5589c-.254-4.2239-.3792-6.3357-.6262-10.56.0054-5.3331.1925-13.49.9369-24,.6638-9.372,1.1834-17.5469,1.1713-24.1623-.2423-3.84-.3618-5.76-.5978-9.6a71.5857,71.5857,0,0,1-.5822-9.5992,3.5952,3.5952,0,0,1,1.9945-3.4446,14.5317,14.5317,0,0,1,6.2638-1.09,9.4678,9.4678,0,0,1,4.581.8884c.3813.1013,3.16.2605,8.3133.435,4.7713.1618,8.9344.4971,12.4053.9521,3.6538.4788,5.5507,1.1538,5.6041,2.1123.0595,1.0656-1.7159,2.2409-5.3355,3.4818-11.1215-1.4926-18.89-2.3672-23.4889-2.2971-.57.3927-.8545.5887-1.4253.98a48.4054,48.4054,0,0,1,.3786,6.8755c.0607,4.5876-.1867,8.7888-.4279,12.3273-.2475,3.629-.2007,7.8978-.1457,12.4824.0359,2.9872,1.461,4.4668,4.29,4.4158,1.9364-.0992,2.9048-.1518,4.8422-.2635q2.4179-.2175,5.1488-.3043c7.8827-.2479,11.8832.4927,11.9737,2.41a3.6216,3.6216,0,0,1-1.3921,3.0275,7.3256,7.3256,0,0,1-4.544,1.3932,15.1772,15.1772,0,0,1-7.0807-1.0368c-3.92-.2032-5.876-.3176-9.78-.5717-.6087.01-.9132.015-1.5217.024-.6045.329-.9071.4931-1.5126.8208l.0059.48q.6411,2.7136.7767,12.63.0827,6.24-.1642,11.3636c-.0675,4.5451-.1023,6.8177-.1734,11.3627a110.6951,110.6951,0,0,0,1.1321,12.7867c.311,2.3691,1.3591,4.0628,3.3341,4.8271s5.5848,1.0974,10.8325.9323c2.3588-.1383,3.5384-.2116,5.8988-.3673,1.9653-.1817,4.1481-.3281,6.56-.4413,6.35-.2977,9.5746.1907,9.6558,1.5732.1125,1.9166-4.6941,3.2036-14.38,3.5986-10.8326.442-16.2369.5718-27.0159.6528C1157.5459,2041.12,1155.3564,2039.9932,1154.9248,2037.7527Z" transform="translate(-84.4734 -106.9474)" style="fill:#3dbacc"/></g></g><g id="vs_shard03"><path d="M1243,128l7-11-11-8-100,28q3.5,27,7,54h13l50-41Z" transform="translate(-84.4734 -106.9474)" style="fill:#bfbfbf"/><path d="M1232,121q3.5-6,7-12c-13.9465-1.0941-28.6335-1.8074-44-2a670.922,670.922,0,0,0-82,4l18,24q3.6064,12.6014,7,26,3.8826,15.3819,7,30l54-47,.085-.1446Z" transform="translate(-84.4734 -106.9474)" style="fill:#fff"/></g><g id="vs_shard02"><path d="M1297,139l27-15-9-9a317.3007,317.3007,0,0,0-78.9448,5.2707L1205,185l19,15h14l18-22Z" transform="translate(-84.4734 -106.9474)" style="fill:#bfbfbf"/><path d="M1289,130l26-15c-12.38-1.594-25.3942-2.959-39-4-13.9117-1.0644-27.2651-1.7-40-2l-36,76,24,15,18.7058-26.595Z" transform="translate(-84.4734 -106.9474)" style="fill:#fff"/></g><g id="vs_shard01"><path d="M1153,187v72l15,1q24.5-57.5,49-115l-16-3Z" transform="translate(-84.4734 -106.9474)" style="fill:#bfbfbf"/><path d="M1145,188l6,63q.8028,4.0917,1.6053,8.1835Q1176.8027,200.5919,1201,142h-1Z" transform="translate(-84.4734 -106.9474)" style="fill:#fff"/></g><g id="vs_shard00"><path d="M1199,252l-6,6h15l75-65-26-23-16,1q-1,5.5-2,11Q1219,217,1199,252Z" transform="translate(-84.4734 -106.9474)" style="fill:#bfbfbf"/><path d="M1222,200q-14.0494,28.0989-28.0989,56.1978-.4506.9012-.9011,1.8022l73.177-63.355L1241,171Z" transform="translate(-84.4734 -106.9474)" style="fill:#fff"/></g><path d="M1332,124l-17-9-27,13-48,43q11.0337,11.5,22.0676,23L1190,258l9,8h11l81-71-21-21,35-29Z" transform="translate(-84.4734 -106.9474)" style="fill:#fff"/><path d="M1212,164q-5.5,12-11,24l-30,83-22-9q25.105-60,50.21-120L1230,121h2Q1222,142.5,1212,164Z" transform="translate(-84.4734 -106.9474)" style="fill:#fff"/></g><g id="pizza_sign"><path d="M1298.78,231.2824q-1.6717-1.2153-1.422-2.6246c1.426-6.742,2.14-10.1129,3.5675-16.8545,2.0272-8.1176,3.4064-14.4746,4.2414-18.93,2.2357-11.93,2.9777-25.3782-1.7127-37.0849a26.2267,26.2267,0,0,1,12.13-.7048,108.7958,108.7958,0,0,1,20.4724,4.8011,59.422,59.422,0,0,1,14.5085,7.0325c7.0728,5.2429,9.9584,10.3054,8.8375,15.1016-1.168,4.9965-5.4072,8.8752-12.5877,11.6986-9.1827,3.6105-19.4374,4.09-29.3465,4.767-.5305,3.9981-.8041,6.0463-1.33,9.9471l-.4927,5.6937c-.0276,1.1692-.4041,2.9373-.6711,4.9946-.5592,4.306-.7352,8.273-1.2884,11.088-.25,1.2733-1.2056,2.1634-2.8536,2.6718a17.6469,17.6469,0,0,1-7.2757.0636A10.7271,10.7271,0,0,1,1298.78,231.2824Zm37.6407-42.8111c4.236-2.1013,6.7481-4.8416,7.4841-8.2485l.0215-.1005a15.3829,15.3829,0,0,0-.2568-6.0685,8.8977,8.8977,0,0,0-2.82-2.9628c-1.4514-1.0716-2.2693-1.6871-2.4406-1.8544-1.2814-.9-4.8138-2.5543-10.654-4.9025-3.0306-1.2529-4.5505-1.8748-7.5992-3.1092a111.1274,111.1274,0,0,0-1.1367,16.176c-.4707,6.4685-.714,9.7018-1.217,16.1665C1325.9671,192.2426,1332.1818,190.574,1336.4207,188.4713Z" transform="translate(-84.4734 -106.9474)" style="fill:#3dbacc"/><path d="M1376.35,242.11c.4362-1.5866,3.4588-1.8,9.0505-.5771,1.3423.2936,2.0132.4414,3.3544.739q1.0833.3462,2.4837.659a7.9958,7.9958,0,0,0,3.3558.2313,2.046,2.046,0,0,0,1.5057-1.5542c1.6643-5.59,2.89-13.5608,3.9286-23.5518a143.79,143.79,0,0,1,4.0062-23.4224,41.68,41.68,0,0,1,1.7476-4.9781c.7-1.9909,1.05-2.9862,1.75-4.977a14.6157,14.6157,0,0,0,.6637-5.6409,62.3858,62.3858,0,0,1-7.0283-1.1237c-4.6174-1.0005-6.7127-2.2736-6.2833-3.8617.2143-.794,1.8617-1.184,4.9528-1.1516a78.7435,78.7435,0,0,1,11.7016,1.2c8.5841,1.424,15.7968,2.8977,21.6152,4.3125a20.4755,20.4755,0,0,1,5.9089,2.3c1.5279.9445,2.1776,1.7825,1.9443,2.5017s-1.0842,1.1776-2.5459,1.3786a14.0516,14.0516,0,0,1-5.1808-.4322c-1.1959-.2926-2.1852-.5678-2.9593-.8263-.9574-.2318-1.4363-.3472-2.3943-.5771a15.5176,15.5176,0,0,0-4.4771-.59,1.8674,1.8674,0,0,0-1.8409,1.3092c-2.85,9.6228-3.9331,19.8444-4.9888,29.6709a163.1933,163.1933,0,0,1-5.605,29.6413c-.4722,1.4941-.7084,2.2411-1.1809,3.7352q1.9718.372,5.5869,1.2592c7.7714,1.9206,11.2517,4.0832,10.4788,6.3642l-.1989.5869c-2.9783-.0465-4.4662-.0648-7.4391-.0914q-.2772-.07-1.6682-.3654c-.9307-.197-2.7944-.6761-5.5284-1.3141-6.2-1.4468-10.19-2.2332-11.6643-2.5774C1383.5368,246.6827,1375.8052,244.0939,1376.35,242.11Z" transform="translate(-84.4734 -106.9474)" style="fill:#3dbacc"/><path d="M1450.1643,261.9948c4.8184-1.0657,11.7939-5.6068,20.59-13.534q13.399-12.0756,25.37-25.2838c7.8591-8.6337,12.7145-14.6547,14.4521-17.7931-4.2547-1.2154-6.3852-1.8134-10.6519-2.99q-2.0919-.5318-6.1981-1.7713c-10.5705-3.1745-15.5242-5.658-14.7806-7.6635l.18-.4854c1.7707-.181,2.657-.27,4.4312-.4445l.0363-.0972a87.1432,87.1432,0,0,0,8.4363,2.902c3.15.9355,7.9273,2.09,14.0931,3.63,6.95,1.7353,11.6625,3.135,14.0083,3.8932a16.2782,16.2782,0,0,1,5.3643,2.6739q1.8453,1.5324,1.3476,2.68c-10.9822,23.746-36.6076,40.8688-58.772,56.5991,2.4119.68,3.6167,1.0236,6.0243,1.7171q3.6054.888,8.4928,2.42c9.5755,3.0137,13.9131,5.57,13.0837,7.4765-.0831.1906-.1246.2859-.2076.4765-1.9673.0055-2.95.01-4.9141.0247-6.5834-2.0535-9.8843-3.055-16.5036-5.0073q-7.6405-2.1382-16.8634-4.8334Q1452.2948,265.1627,1450.1643,261.9948Z" transform="translate(-84.4734 -106.9474)" style="fill:#3dbacc"/><path d="M1527.1779,286.8411c4.9131-.7166,12.3108-4.7409,21.8487-12.0087q14.5281-11.07,27.7386-23.37c8.6686-8.0379,14.09-13.6889,16.1225-16.6907-4.1367-1.5169-6.2087-2.2657-10.36-3.7444q-2.04-.6793-6.0251-2.21c-10.2594-3.9213-14.9711-6.7487-14.0385-8.6935l.2259-.4707c1.7857-.0537,2.6793-.0789,4.468-.1259l.0454-.0943a85.4932,85.4932,0,0,0,8.1523,3.4962c3.0575,1.1575,7.7208,2.6511,13.7362,4.6274,6.78,2.2276,11.3566,3.9612,13.63,4.8856a15.8846,15.8846,0,0,1,5.1088,3.05q1.6986,1.6608,1.0941,2.767c-13.2213,22.8785-40.4555,38.0956-64.0784,52.1714,2.3454.8509,3.5167,1.28,5.8567,2.1437q3.52,1.144,8.2587,3.0214c9.2843,3.6911,13.38,6.5515,12.3713,8.3916l-.2524.46c-1.9671-.1364-2.95-.2022-4.9143-.3294-6.3868-2.52-9.5913-3.7557-16.0213-6.1766q-7.4322-2.6789-16.3915-6.0257Q1529.0061,290.1495,1527.1779,286.8411Z" transform="translate(-84.4734 -106.9474)" style="fill:#3dbacc"/><path d="M1654.4334,343.66q-1.5015-1.4914-.6616-2.7157c3.1507-4.587,4.725-6.881,7.872-11.47-1.8359-1.6589-5.6562-4.2623-11.5152-7.7393s-12.8686-8.6506-16.9533-9.3373c-1.7826-.3-5.02,1.2144-6.9989,2.6-.8605.5213-1.29.7822-2.1495,1.3048q-.6518.506-3.2725,2.0543a27.8366,27.8366,0,0,1-5.125,2.4083c-1.67.5722-3.6215,1.2141-4.5834,1.0517-5.0612-.8545-9.8635-5.26-10.1733-6.9288,2.4574-.1211,6.289-1.993,11.5454-5.5823,7.412-5.047,11.1493-7.5477,18.6843-12.5022,7.4338-5.202,15.23-10.23,23.2018-14.7933a91.8451,91.8451,0,0,1,19.46-8.5337c6.7957-2.0038,12.1707-2.0633,15.9775-.1348a39.7488,39.7488,0,0,1,8.2015,5.146c-1.5962,2.3384-3.87,8.9588-6.5395,19.5332-2.6355,10.4412-5.023,17.4265-7.2675,20.6147-2.1634,3.0741-4.24,8.1058-6.5342,14.6963a61.632,61.632,0,0,1-7.4542,15.2914c-1.4053,1.9619-4.8092,1.4735-10.2523-1.394A24.3849,24.3849,0,0,1,1654.4334,343.66Zm10.6177-19.66a105.4509,105.4509,0,0,0,3.9517-10.88c3.05-9.1188,5.5184-18.8706,10.3511-27.4556.1883-.2823.2823-.4236.47-.7059-2.18-.3133-6.4165,1.1134-12.6343,4.3263a176.7766,176.7766,0,0,0-18.5291,11.1057c-6.1317,4.1874-9.8186,7.1553-11.1243,8.8582q10.2147,6.2978,22.2277,12.3964Q1661.8074,322.6865,1665.0511,324.0005Z" transform="translate(-84.4734 -106.9474)" style="fill:#3dbacc"/><path d="M732.722,341.7286q-2.0659-.0573-2.6568-1.3609c-2.6357-6.3671-3.9531-9.551-6.587-15.9189-2.9176-7.8417-5.3742-13.8649-7.2046-18.0118-4.901-11.104-11.8927-22.616-22.38-29.62a26.2251,26.2251,0,0,1,9.6065-7.44A108.7945,108.7945,0,0,1,723.1,261.7623a59.4252,59.4252,0,0,1,15.943-2.4024c8.7981.3255,14.0406,2.87,15.8278,7.4593,1.8617,4.7816.5581,10.3776-3.7682,16.7662-5.5327,8.17-13.72,14.3636-21.51,20.5244,1.8692,3.6888,2.802,5.5341,4.6639,9.2266,1.0773,1.889,1.6152,2.8339,2.6894,4.7245.6346.9826,1.3209,2.6437,2.2574,4.4791,1.9734,3.8678,4.0712,7.2394,5.2065,9.874.5134,1.1919.2288,2.4661-.8431,3.8173a17.6479,17.6479,0,0,1-5.9651,4.1661A10.728,10.728,0,0,1,732.722,341.7286Zm6.8414-56.5934c2.3058-4.1282,2.8285-7.8088,1.5093-11.035l-.0391-.095a15.3827,15.3827,0,0,0-3.6429-4.86,8.8976,8.8976,0,0,0-4.0013-.8492c-1.803-.0632-2.8256-.1085-3.0616-.15-1.5656-.0175-5.4147.6149-11.5594,1.98-3.2081.68-4.8134,1.0265-8.0259,1.7321a111.1335,111.1335,0,0,0,8.2083,13.9849c3.2691,5.6014,4.8964,8.406,8.1367,14.0225C733.0734,294.1563,737.256,289.2662,739.5634,285.1352Z" transform="translate(-84.4734 -106.9474)" style="fill:#3dbacc"/><path d="M802.825,306.8018c-.5373-1.5552,1.8354-3.44,7.1387-5.5931,1.2732-.5168,1.91-.7742,3.1847-1.2871q1.0892-.3267,2.4211-.8607a7.9959,7.9959,0,0,0,2.8987-1.7065,2.046,2.046,0,0,0,.3632-2.1333c-1.7881-5.5522-5.2837-12.8191-10.0758-21.6472A143.8,143.8,0,0,1,798.817,251.99a41.6826,41.6826,0,0,1-1.3731-5.0942c-.5484-2.0378-.8224-3.0567-1.37-5.0948a14.6175,14.6175,0,0,0-2.6419-5.028,62.3689,62.3689,0,0,1-6.4324,3.047c-4.3742,1.7854-6.8222,1.92-7.366.3673-.2722-.776.8661-2.0292,3.4341-3.75a78.728,78.728,0,0,1,10.33-5.6267c7.8854-3.6789,14.6678-6.5414,20.2669-8.6641a20.4738,20.4738,0,0,1,6.1745-1.4434c1.7942-.0848,2.8038.239,3.0181.9641s-.2285,1.5844-1.32,2.5766a14.0524,14.0524,0,0,1-4.5176,2.5727c-1.1518.4348-2.1234.7672-2.9081.9916-.9208.35-1.3811.5257-2.3012.8777a15.5209,15.5209,0,0,0-4.0265,2.0445,1.8672,1.8672,0,0,0-.7782,2.1207c3.09,9.5485,7.9759,18.5917,12.6611,27.2938a163.1923,163.1923,0,0,1,12.136,27.6176c.4553,1.4994.6828,2.2491,1.1379,3.7486,1.2244-.5387,2.9982-1.25,5.32-2.12,7.4959-2.81,11.5893-2.9938,12.2413-.6754l.1678.5965c-2.4828,1.6456-3.72,2.4717-6.1875,4.1307-.1787.0662-.7077.28-1.5826.6418-.879.3637-2.6872,1.0223-5.3029,2.0419-5.9321,2.3122-9.6675,3.9194-11.0782,4.4691C811.3383,306.51,803.4974,308.7457,802.825,306.8018Z" transform="translate(-84.4734 -106.9474)" style="fill:#3dbacc"/><path d="M874.9512,281.4681c3.3717-3.6032,6.5578-11.2928,9.3307-22.8044,2.8161-11.6907,5.0009-23.43,6.63-35.1984,1.6007-11.5648,2.2013-19.2762,1.86-22.8473-4.1966,1.4032-6.2919,2.1145-10.4765,3.5564q-2.026.7442-6.1137,2.0434c-10.5136,3.3581-16.0037,4.1106-16.5243,2.0359-.05-.2009-.0756-.3013-.1259-.5022,1.3581-1.15,2.0389-1.7248,3.4036-2.8719l-.025-.1007a87.1558,87.1558,0,0,0,8.5992-2.3763c3.127-1.0093,7.7206-2.7578,13.6766-4.9742,6.7135-2.4983,11.3919-4.0082,13.7554-4.7091a16.2811,16.2811,0,0,1,5.9365-.8275c1.5922.1471,2.4668.6326,2.6266,1.4485,4.3677,25.7954-7.0874,54.4072-16.4751,79.9136,2.374-.8027,3.562-1.2006,5.94-1.99q3.4759-1.3061,8.3731-2.8061c9.6021-2.9283,14.625-3.2723,15.0189-1.2307.0392.2042.0589.3063.0982.51-1.62,1.1168-2.4274,1.6765-4.0393,2.7988-6.5911,2.0285-9.88,3.0687-16.4435,5.2009q-7.5111,2.5565-16.6421,5.5479Q878.4995,282.8765,874.9512,281.4681Z" transform="translate(-84.4734 -106.9474)" style="fill:#3dbacc"/><path d="M952.5214,258.4184c3.6473-3.3688,7.4737-10.8709,11.2316-22.2582q5.7238-17.345,9.6658-34.9595c2.6054-11.531,3.8817-19.2571,3.8611-22.8824-4.27,1.0877-6.402,1.6415-10.6623,2.7691q-2.0669.5933-6.2189,1.5841c-10.6792,2.5663-16.1641,2.8983-16.4945.7668l-.08-.5159c1.4425-1.054,2.1653-1.58,3.6141-2.63l-.0159-.1034a85.4834,85.4834,0,0,0,8.7009-1.7256c3.1764-.774,7.8672-2.1787,13.9463-3.95,6.8517-1.996,11.6067-3.1537,14.0042-3.6764a15.8838,15.8838,0,0,1,5.9385-.3726q2.34.4094,2.4668,1.6637c2.03,26.3459-11.8292,54.2954-23.3553,79.2617,2.4156-.6242,3.6241-.9328,6.0428-1.5432q3.55-1.0464,8.52-2.1774c9.7448-2.2048,14.74-2.1614,14.9488-.0731l.0518.5221c-1.7,1-2.5474,1.5011-4.24,2.5069-6.693,1.5322-10.0345,2.3251-16.7069,3.9639q-7.6447,1.9923-16.9269,4.2975Q955.9,260.1136,952.5214,258.4184Z" transform="translate(-84.4734 -106.9474)" style="fill:#3dbacc"/><path d="M1089.61,233.3338c-1.3878-.2541-2.0822-.8732-2.0812-1.8658.0053-5.5649.0068-8.3472.0078-13.9115-2.4522-.33-7.0751-.3177-13.8737.1271s-15.5052.1407-19.2627,1.8838c-1.64.7607-3.4539,3.84-4.3025,6.1021-.4149.9165-.6221,1.3748-1.0351,2.2916q-.2515.7857-1.5378,3.5446a27.8362,27.8362,0,0,1-2.8655,4.8842c-1.0537,1.416-2.3007,3.0489-3.1859,3.4588-4.6577,2.1568-11.1093,1.2387-12.3086.0369,1.9584-1.4891,4.0605-5.1995,6.3666-11.132,3.26-8.3536,4.9287-12.5292,8.3424-20.8762,3.19-8.4937,6.7783-17.0491,10.7732-25.32a91.85,91.85,0,0,1,11.2258-18.0413c4.4723-5.4951,8.8721-8.5832,13.1024-9.1449a39.75,39.75,0,0,1,9.6742-.3926c.0056,2.8313,1.873,9.5777,5.65,19.8087,3.73,10.1022,5.71,17.2138,5.6612,21.1125-.0463,3.7587,1.0856,9.0831,2.92,15.8162a61.6343,61.6343,0,0,1,2.4974,16.8272c-.05,2.4128-3.1336,3.9344-9.2444,4.6468A24.3849,24.3849,0,0,1,1089.61,233.3338Zm-2.358-22.219a105.4378,105.4378,0,0,0-2.8922-11.2084c-2.64-9.2457-6.1177-18.6849-6.9856-28.4983-.0043-.3394-.0066-.509-.011-.8483-1.9755.9743-4.6629,4.5463-7.9749,10.7118a176.7712,176.7712,0,0,0-9.004,19.6366c-2.69,6.9206-4.0529,11.4532-4.1671,13.596q11.9861-.5808,25.3427-2.3427Q1083.8332,211.865,1087.2516,211.1148Z" transform="translate(-84.4734 -106.9474)" style="fill:#3dbacc"/></g></svg>