<svg xmlns="http://www.w3.org/2000/svg" viewBox="0 0 2400 2400"><g id="Background"><rect width="2400" height="2400" style="fill:#3dbacc"/></g><g id="plateBroken"><g id="shards"><g id="shard10"><path d="M1880,352l-16-3q-239.00005-99.5-478-199a228.019,228.019,0,0,1-15,21c-50.64453,63.015-123.979,85.2988-170,94q18.99995-35.5,38-71-11.00005-7.5-22-15,12.50005-27,25-54l-10-4c-12.30322,20.55978-24.80872,43.23062-37,68-12.04761,24.47758-22.28259,47.9454-31,70q-.99995-36.5-2-73-6.99995-27.5-14-55l-15-19-17-1c-6.09546,1.81538-15.31885,4.42771-26.64612,7.09266-38.76037,9.11905-60.42029,7.42913-89.92969,12.93517q-44.08245,8.22518-87.39965,20.06708-42.80466,11.70651-84.57434,26.88933-41.37041,15.04005-81.45386,33.40216-39.78012,18.22381-78.03821,39.60541-38.03457,21.25641-74.32739,45.4991-36.135,24.13686-70.32123,51.08328-34.08257,26.86464-66.01993,56.358-31.87839,29.43956-61.42343,61.32309-29.52342,31.86217-56.53168,65.97867-27.01858,34.13314-51.34478,70.3247-24.36406,36.25352-45.86257,74.36127-21.56007,38.22428-40.0852,78.08826Q183.436,794.055,168.02934,835.51385q-15.50091,41.72223-27.6448,84.61359-12.24335,43.25152-20.98185,87.412-8.83143,44.63488-14.0235,89.90088c-3.25187,28.34167-2.76261,35.855-5.90959,71.48425-3.22652,36.52966-6.92385,65.96008-9.493,84.81323q5.00147,8.58125,10.00295,17.1626l232.00138,8.116L522,1379h79q121.98349-90.32574,243.967-180.65161,129.4986-8.05335,258.99719-16.10657,59.887-43.88872,119.77381-87.77746l117.09961-86.11164,273.34253-92.851,157.80712-121.0213L1810.62964,665.548l2.94458-112.12353,79.17236-100.39618Q1891.37329,412.51411,1890,372,1884.99995,362,1880,352Z" transform="translate(-1 0)" style="fill:#bfbfbf"/><path d="M1879.15271,359.35052l.00488-.08685c.3468-2.43628.63208-4.85888.89051-7.27545q-10.721-8.6435-21.65039-17.02869c-140.00281-107.18475-305.15918-179.96576-478.63794-210.28088q-32.48584-5.67692-65.267-9.38605Q1301.74646,122.64631,1289,130q-23.18976,21.66395-46.37939,43.32782L1266.177,194.645l-73.0664,63.00153,33.3059-58.5766-23.647-14.52863,28.82507-63.25983q-16.25481,11.287-32.50964,22.57392l-46.47961,115.32812Q1150.80267,224.5918,1149,190q-3.67-14.58408-7.34009-29.16821l-7.16345-26.31159q-9.00055-11.93151-18.00085-23.8631-19.6529,1.28742-39.2533,3.25672-45.27264,4.5845-90.06708,12.89343-44.14994,8.19737-87.53393,19.99713-42.87058,11.66492-84.705,26.79242-41.43448,14.98527-81.58051,33.27936-39.8421,18.15637-78.16027,39.458-38.09427,21.177-74.4444,45.32824-36.19216,24.04587-70.4328,50.89014-34.13671,26.7627-66.12543,56.14374-31.92957,29.32736-61.52252,61.08893Q353.0991,491.52545,326.04657,525.511q-27.06289,34.00213-51.4295,70.05432-24.40458,36.11379-45.9394,74.0744Q207.08112,707.7164,188.524,747.426q-18.638,39.89181-34.07221,81.18969-15.52844,41.56028-27.69507,84.28479-12.26614,43.08334-21.02227,87.0716-8.84922,44.46084-14.05371,89.55c-3.89118,33.70093-5.36927,59.91834-5.92566,71.20484C84.13824,1193.52771,84.25049,1222.3396,85,1246q7.30132,4.25592,14.60272,8.512l234.53577,7.76721q92.58161,50.59735,185.16327,101.19483,39.0801.79193,78.16022,1.58362,120.05922-89.6955,240.11865-179.39124l260.14654-15.83313,114.00562-83.38684,117.2854-85.78583,273.7655-92.51434,158.058-120.56287,38.71375-128.431,2.96021-111.68451,79.30212-100.01074Q1880.48529,403.40375,1879.15271,359.35052Z" transform="translate(-1 0)" style="fill:#fff"/><path d="M1532.96973,386.40674c-111.27637-47.125-229.47266-71.01953-351.30469-71.01953-121.83252,0-240.02832,23.89453-351.30518,71.01953A906.19056,906.19056,0,0,0,350.0918,867.2749C303.02832,978.68457,279.165,1097.02246,279.165,1219q0,17.23663.6358,34.37329.09957,4.81329.19916,9.62671,15.5.50005,31,1l-.184-11.08228c-.8161-15.98876-.65094-28.09411-.65094-33.91772,0-481.16016,390.95312-872.61279,871.5-872.61279,17.82153,0,112.38708-1.71863,230.75574,31.046C1609.26733,431.92062,1738.71594,543.81549,1801,606q.50005-21.5,1-43a892.06793,892.06793,0,0,0-269.03027-176.59326Z" transform="translate(-1 0)" style="fill:#e3e0e0"/></g><g id="shard09"><path d="M1953.51477,421.57c-21.76245-20.888-43.13647-39.693-63.6687-56.57-.31946,2.508-.66724,5.02179-1.0802,7.54865l-.00684.09014q.55353,45.83547,1.10694,91.671l-85.58606,102.4867Q1795.14,620.89823,1786,675q3.99995,5,8,10,78.57495-50.21256,157.1499-100.42517,35.92493-44.9687,71.8501-89.93732C2002.66064,471.19415,1979.57971,446.58743,1953.51477,421.57Z" transform="translate(-1 0)" style="fill:#bfbfbf"/><path d="M1944.51477,410.57C1922.51843,389.19141,1900.892,369.709,1880,352a85.09235,85.09235,0,0,1-.23413,9.54865l-.00684.09014c-.24572,3.22382-1.06225,27.71058-2.759,85.36121q-40.86,54.39825-81.72009,108.79651Q1790.64,615.39826,1786,675q78.07489-50.71261,156.1499-101.42517,35.92493-44.9687,71.8501-89.93732C1993.28113,460.05826,1970.17834,435.51273,1944.51477,410.57Z" transform="translate(-1 0)" style="fill:#fff"/><path d="M1819.83594,580.05615c-5.3628-5.34125-10.55921-10.395-10.55933-10.39508C1803.749,564.28522,1798.90173,559.6731,1795,556q-1.46521,20.38331-2.93042,40.76666,10.25793,9.93118,20.89941,21.27729c7.92884,8.489,15.26148,16.83959,22.031,24.95605q14.00005-9,28-18C1843.69849,604.36072,1828.38977,588.57556,1819.83594,580.05615Z" transform="translate(-1 0)" style="fill:#e3e0e0"/></g><g id="shard08"><path d="M2173.59741,726.45587Q2173.29858,720.2279,2173,714c-20.80347-34.32855-44.366-70.42-71.02734-107.60822-29.04322-40.51043-58.05921-77.1549-86.10584-110.07391l-67.51794,86.88184-144.89539,101.291Q1779.72669,737.74533,1756,791q1.5,8,3,16,131.105-24.92523,262.06555-50.51074Q2097.3482,741.586,2173.59741,726.45587Z" transform="translate(-1 0)" style="fill:#bfbfbf"/><path d="M2173.291,713.725A1120.09373,1120.09373,0,0,0,2011.6886,481.44254l-69.20349,87.71066L1784,673q-13.98156,59.09811-27.963,118.19629c85.82043-18.63208,171.17346-30.22345,260.93957-47.13184C2070.19287,733.6908,2121.39111,724.67108,2173.291,713.725Z" transform="translate(-1 0)" style="fill:#fff"/><path d="M1859.27832,622.11877,1833,640c15.01514,16.81714,30.61353,35.64148,46.26733,56.56268C1896.02283,718.95624,1910.50513,740.62915,1923,761l33-6c-13.26111-22.39709-28.80359-46.3551-46.99036-71.16022C1892.19409,660.905,1875.40552,640.36578,1859.27832,622.11877Z" transform="translate(-1 0)" style="fill:#e3e0e0"/></g><g id="shard07"><path d="M107,1257H95.29553q3.15177,50.18518,5.96214,100.39575Q103.765,1402.19342,106,1447q2,6.99995,4,14,18,3.50005,36,7,61.5-27.99995,123-56,75,6.99995,150,14,55.5-24.50005,111-49,1-6.99995,2-14-95.5-47.00005-191-94Z" transform="translate(-1 0)" style="fill:#bfbfbf"/><path d="M85,1246q3.793,49.98486,9.25767,102.39575Q99.56479,1398.95136,106,1447q19,3.99995,38,8,61.5-29.00005,123-58,74.5,6.50005,149,13,58-23.49995,116-47-98-53.49995-196-107Q210.5,1250.99995,85,1246Z" transform="translate(-1 0)" style="fill:#fff"/><path d="M329.695,1403.11914c-4.88459-22.62195-9.27564-47.39441-12.63376-74.11829C313.74789,1302.63318,311.87939,1277.86145,311,1255l-31.19916-1.62671c.90073,22.93,2.68164,47.5127,5.69293,73.50867,3.06662,26.47375,7.0409,51.2334,11.50623,74.118Q313.34753,1402.05963,329.695,1403.11914Z" transform="translate(-1 0)" style="fill:#e3e0e0"/></g><g id="shard06"><path d="M2274.49585,1017.02539A1109.173,1109.173,0,0,0,2177.82129,731.476C2127.07275,741.81116,2077.02759,750.24481,2025,760c-87.75525,15.87061-171.15308,26.51727-255.07471,44.13409L1769,807,1609,924l-275,87q-54,32.49995-108,65,.99995,7.5,2,15l359,57q300.50005,57.50005,601,115,51.49988,25.5,103,51A1109.14328,1109.14328,0,0,0,2274.49585,1017.02539Z" transform="translate(-1 0)" style="fill:#bfbfbf"/><path d="M2273.23584,999.78271a1129.15528,1129.15528,0,0,0-44.91577-162.75195c-13.78394-38.22345-24.36817-64.69336-36.46558-88.80133C2183.85156,732.28076,2176.47217,719.25751,2171,710l-417,78q-77.4657,59.34063-154.9314,118.68134l-278.58325,87.071Q1273.24267,1034.87622,1226,1076l360.91223,56.866q299.35035,56.54626,598.70056,113.0924Q2238.80641,1271.47925,2292,1297C2299.96948,1169.92041,2286.64771,1067.91821,2273.23584,999.78271Z" transform="translate(-1 0)" style="fill:#fff"/><path d="M2084.165,1219c0-121.97754-23.86328-240.31543-70.92676-351.7251a902.87558,902.87558,0,0,0-60.2539-117.79693c-10.9292,3.29254-21.38428,6.74682-32.35572,7.40014A868.12888,868.12888,0,0,1,2053.165,1219c0,.53247-.00928,1.06262-.01025,1.59473q15.47937,3.40887,30.95874,6.81762C2084.13892,1224.60938,2084.165,1221.80676,2084.165,1219Z" transform="translate(-1 0)" style="fill:#e3e0e0"/></g><g id="shard05"><path d="M1593,1134q2.00005,9.99995,4,20,111.50005,92.49995,223,185,50.00005-15,100-30,185.49995,2.49995,371,5,.49988-6,1-12l-109-44Q1888.00006,1195.99995,1593,1134Z" transform="translate(-1 0)" style="fill:#bfbfbf"/><path d="M1582,1125q119.00005,99.99995,238,200,48.50005-14.49995,97-29l375,6v-7l-109-53Z" transform="translate(-1 0)" style="fill:#fff"/><path d="M2053,1216q.011,24.60663-1.14917,50.96216Q2051.12829,1282.81872,2050,1298q15.49988.50005,31,1,1.33521-17.64532,2.12158-36.39673.85731-20.94434.87842-40.60327Q2068.50012,1219,2053,1216Z" transform="translate(-1 0)" style="fill:#e3e0e0"/></g><g id="shard04"><path d="M1603,1158q-188.49995-29.49995-377-59l-1.06372.72693L1106,1183l-260,11q-106,77.00005-212,154-18.5,8.49995-37,17,1,6.99995,2,14,400,48.50005,800,97,216.99995-64.5,434-129v-18Q1718.00006,1243.5,1603,1158Z" transform="translate(-1 0)" style="fill:#bfbfbf"/><path d="M1588,1119q-179.00005-23.49995-358-47-69.99995,45.99995-140,92-131,6.99995-262,14-115.5,93.50005-231,187,400.5,48.50005,801,97,217.5-66.50005,435-133Q1710.50006,1224,1588,1119Z" transform="translate(-1 0)" style="fill:#fff"/></g><g id="shard03"><path d="M1600,1520q-105-21.50005-210-43l-12-18q272.00005-74.00005,544-148,180-5.00005,360-10-.49988,6.50005-1,13l-138,39-288,147Q1727.5,1509.99995,1600,1520Z" transform="translate(-1 0)" style="fill:#bfbfbf"/><path d="M1598,1506q-110.00005-23.49995-220-47,268.5-83.00005,537-166,183.50005,3.99995,367,8-72,20.49995-144,41-143.324,72.85785-286.64832,145.7157Q1724.67584,1496.85778,1598,1506Z" transform="translate(-1 0)" style="fill:#fff"/><path d="M2050,1296q-2.18555,22.13983-5.451,45.7334c-2.53784,18.158-5.42175,35.59253-8.549,52.2666q17.49995-9,35-18,3.368-21.05328,6.13745-43.57483Q2079.40869,1313.7801,2081,1296Z" transform="translate(-1 0)" style="fill:#e3e0e0"/></g><g id="shard02"><path d="M2150.44434,1340.01831q-141.04615,72.34863-282.09266,144.69739L1589,1504q-102.50005-21.50005-205-43,2.49995,9.50005,5,19,104.49995,60,209,120l168,39q122.00005-.99995,244-2,93,24.50005,186,49a936.34557,936.34557,0,0,0,96-386Q2221.22205,1320.00922,2150.44434,1340.01831Z" transform="translate(-1 0)" style="fill:#bfbfbf"/><path d="M2149,1328q-141,72.50005-282,145-138.50005,6.99995-277,14-105.99995-14.00005-212-28,110.00005,62.49995,220,125l166,39q123-.99995,246-2l186,51a946.75236,946.75236,0,0,0,97-389Z" transform="translate(-1 0)" style="fill:#fff"/><path d="M2072.14331,1367.01855q-17.47155,9.28693-34.94311,18.57374A866.79347,866.79347,0,0,1,1955.01331,1621h35.16186q12.26019-24.71521,23.06311-50.27441A895.38774,895.38774,0,0,0,2072.14331,1367.01855Z" transform="translate(-1 0)" style="fill:#e3e0e0"/></g><g id="shard01"><path d="M1942,1670q31.5,35.00005,63,70,64.99988,28.5,130,57a851.38132,851.38132,0,0,0,43-74c8.13379-15.77417,15.436-31.14783,22-46v-14q-93.787-19.92371-187.57373-39.84741Q1888.21319,1623.07623,1764,1623q.50005,6.50005,1,13Q1853.5,1653.00006,1942,1670Z" transform="translate(-1 0)" style="fill:#bfbfbf"/><path d="M1946.19983,1659.81873l63.64587,70.32226q61.36268,27.31019,122.72583,54.62036c14.50879-22.4292,29.15674-47.00671,43.42847-73.76135q13.12939-24.613,24-48l-186-51q-125.00005,5.49995-250,11Q1855.09992,1641.40943,1946.19983,1659.81873Z" transform="translate(-1 0)" style="fill:#fff"/><path d="M1959,1614c-3.38159,6.92834-7.34912,14.33179-12.00732,22.03906-4.679,7.74158-9.41089,14.72412-13.99268,20.96094l13,3q6.50005,6.99995,13,14a323.00893,323.00893,0,0,0,35-61h-16Q1968.49995,1613.50006,1959,1614Z" transform="translate(-1 0)" style="fill:#e3e0e0"/></g><g id="shard00"><path d="M1578,1628,537,1421q-55,12.50005-110,25-74,3.50005-148,7-61,21.99995-122,44-25.5-26.00005-51-52c19.8477,103.8374,84.49529,364.40051,313.25473,586.18945,316.60214,306.95508,708.8472,308.21216,786.68436,306.78638,231.00171-4.23169,407.07751-81.6333,499.67212-131.26245C1951.89148,2074.71118,2082.22241,1884.80176,2135,1797q.49988-8.49995,1-17-73.5-3.99995-147-8-42.50005-36-85-72Z" transform="translate(-1 0)" style="fill:#bfbfbf"/><path d="M1601.99384,1576.66054q-106.49817-60.91-212.99633-121.82006-396.49867-45.92258-792.99723-91.84528-32.5-.99755-64.99994-1.9952-57.00069,22.96906-114.00139,45.938-74.49978-6.48858-148.9996-12.977l-123.00172,56.92262-38.99982-5.99029c21.73607,105.54053,89.16424,357.80842,312.90475,571.62881,306.46814,292.88009,683.42456,300.78594,786.51813,298.89978,245.82935-4.49734,426.99257-89.80754,499.7347-128.31933,246.8926-130.71211,377.84069-320.21795,430.83235-407.74684q-60.49907-27.45914-120.99835-54.91813l-66.9979-69.89841Q1774.99261,1615.59986,1601.99384,1576.66054Z" transform="translate(-1 0)" style="fill:#fff"/><path d="M1949,1654q-6.50005-.99995-13-2c-40.10864,67.73108-134.36462,206.17432-310.77625,309.52148-79.7229,46.70411-239.65014,119.93189-443.55871,119.93189-417.48065,0-767.33032-291.13013-851.97-678.42371q-.34749-2.02953-.695-4.059L298,1396v1a847.24714,847.24714,0,0,0,52.0918,171.18457,870.59073,870.59073,0,0,0,72.16382,134.87659,903.53412,903.53412,0,0,0,408.10424,338.95813C941.63672,2088.45508,1059.83252,2112,1181.665,2112c121.832,0,240.02832-23.54492,351.30469-69.98071A900.279,900.279,0,0,0,1962,1669Q1955.49995,1661.5,1949,1654Z" transform="translate(-1 0)" style="fill:#e3e0e0"/></g><path d="M1332,124q-8.49995-4.5-17-9l-27,13-48,43q11.03374,11.5,22.06763,23Q1226.03394,226,1190,258l9,8h11l81-71-21-21q17.49995-14.5,35-29Z" transform="translate(-1 0)" style="fill:#fff"/><path d="M1212,164q-5.49995,12-11,24l-30,83q-11.00005-4.5-22-9,25.105-60,50.20984-120Q1214.605,131.5,1230,121h2Q1222.00006,142.5,1212,164Z" transform="translate(-1 0)" style="fill:#fff"/></g><g id="pizzaSign"><path d="M1299.661,229.43333a2.32613,2.32613,0,0,1-1.23531-2.26806c1.22095-5.83575,1.83184-8.75356,3.05437-14.58906,1.73842-7.027,2.9196-12.52965,3.63346-16.3859,1.91153-10.32573,2.52787-21.9625-1.55257-32.08194a22.69035,22.69035,0,0,1,10.49331-.63295,94.132,94.132,0,0,1,17.7216,4.11473,51.41281,51.41281,0,0,1,12.56587,6.05673c6.12927,4.5226,8.63556,8.897,7.67487,13.04878-1.00094,4.32514-4.66121,7.689-10.86828,10.14542-7.93781,3.1413-16.80911,3.57591-25.381,4.18035-.4513,3.46016-.68418,5.23276-1.13123,8.60867l-.41549,4.927c-.02162,1.01156-.34394,2.542-.57107,4.32245-.47554,3.72655-.62025,7.15912-1.0935,9.59566a3.135,3.135,0,0,1-2.46382,2.31706,15.2686,15.2686,0,0,1-6.2947.06893A9.28128,9.28128,0,0,1,1299.661,229.43333Zm32.48442-37.11131c3.66085-1.82605,5.82906-4.20177,6.45934-7.15072l.01839-.087a13.30956,13.30956,0,0,0-.23372-5.24989,7.698,7.698,0,0,0-2.44565-2.558c-1.25779-.9243-1.96657-1.45528-2.11511-1.59973-1.11039-.776-4.16969-2.20077-9.227-4.2212-2.62444-1.07824-3.94065-1.61338-6.58065-2.67553a96.1399,96.1399,0,0,0-.95257,13.99739c-.39488,5.59727-.59928,8.39515-1.02207,13.98927C1323.10831,195.60487,1328.482,194.14938,1332.14542,192.322Z" transform="translate(-1 0)" style="fill:#3dbacc"/><path d="M1366.79371,238.65346c.3743-1.37354,2.989-1.56357,7.8292-.51661,1.16188.25146,1.74265.37807,2.90361.633q.93782.29754,2.15007.56542a6.91807,6.91807,0,0,0,2.9038.19372,1.77022,1.77022,0,0,0,1.29981-1.34756c1.42925-4.84,2.4743-11.73806,3.35395-20.3841a124.40935,124.40935,0,0,1,3.42139-20.27226,36.06112,36.06112,0,0,1,1.50255-4.31031c.60165-1.72383.90268-2.58568,1.505-4.30936a12.64546,12.64546,0,0,0,.56344-4.88172,53.96984,53.96984,0,0,1-6.08292-.95874c-3.99673-.85683-5.812-1.9543-5.44356-3.32915.18389-.6873,1.60844-1.02791,4.2829-1.00573a68.11807,68.11807,0,0,1,10.12635,1.01549c7.42946,1.21563,13.67263,2.47692,18.70931,3.6899a17.715,17.715,0,0,1,5.1167,1.97907c1.32367.81425,1.88735,1.538,1.68693,2.16069q-.30111.93507-2.20007,1.19762a12.157,12.157,0,0,1-4.48316-.36409c-1.03519-.25083-1.89164-.487-2.56194-.70924-.82878-.19872-1.24333-.29768-2.07256-.49475a13.42665,13.42665,0,0,0-3.87469-.50214,1.61547,1.61547,0,0,0-1.59014,1.1362c-2.44757,8.33091-3.365,17.17652-4.25966,25.68033a141.1858,141.1858,0,0,1-4.79273,25.65577c-.4057,1.29362-.60865,1.94038-1.01455,3.23393q1.70659.31806,4.83608,1.07879c6.72731,1.64682,9.74258,3.51123,9.07816,5.48615l-.171.50814c-2.57684-.03454-3.86414-.04754-6.43629-.06485q-.24-.05978-1.444-.313c-.80557-.1686-2.419-.5796-4.78561-1.12635-5.36709-1.2399-8.82044-1.91266-10.09666-2.20766C1373.02057,242.59562,1366.3264,240.37062,1366.79371,238.65346Z" transform="translate(-1 0)" style="fill:#3dbacc"/><path d="M1430.69479,255.71622c4.1667-.93123,10.19318-4.87346,17.788-11.74869q11.56951-10.4732,21.901-21.92349c6.783-7.4848,10.97235-12.70329,12.46977-15.42191-3.68347-1.0434-5.52787-1.55671-9.22159-2.56659q-1.81092-.45606-5.36585-1.52065c-9.15144-2.72631-13.44211-4.86556-12.80259-6.60213.062-.16811.09289-.2522.15488-.42032,1.53163-.16,2.29821-.23859,3.83289-.393l.03121-.08418A75.40161,75.40161,0,0,0,1466.787,197.53c2.727.80333,6.8626,1.79352,12.2,3.11362,6.01634,1.488,10.09615,2.69,12.12712,3.34157a14.08444,14.08444,0,0,1,4.64625,2.30319q1.59939,1.32223,1.171,2.316c-9.45623,20.56561-31.59428,35.42887-50.74049,49.08077,2.088.58391,3.1311.87873,5.21537,1.47417q3.12108.76139,7.35247,2.0772c8.29037,2.58913,12.048,4.79243,11.334,6.44359-.07154.16507-.10725.24763-.17868.4127-1.70208.00844-2.55237.0146-4.25156.03071-5.69972-1.764-8.55756-2.62425-14.28815-4.30077q-6.61456-1.83529-14.59915-4.14954A10.485,10.485,0,0,1,1430.69479,255.71622Z" transform="translate(-1 0)" style="fill:#3dbacc"/><path d="M1497.373,277.06581c4.24936-.62931,10.64208-4.12523,18.88023-10.43137q12.54828-9.60549,23.95436-20.27249c7.4846-6.97079,12.16406-11.87026,13.917-14.4713-3.58184-1.30446-5.376-1.9484-8.97055-3.2198q-1.76646-.58386-5.21706-1.90017c-8.88376-3.37307-12.96566-5.81028-12.16248-7.49468l.19451-.40768c1.54494-.04991,2.318-.07342,3.86546-.11747l.03907-.08164a73.97275,73.97275,0,0,0,7.05992,3.00923c2.64749.99567,6.685,2.279,11.89316,3.97738,5.8702,1.91431,9.83309,3.40545,11.80144,4.20092a13.74243,13.74243,0,0,1,4.42588,2.62934q1.47276,1.43354.95183,2.39185c-11.39516,19.81932-34.9287,33.03689-55.33994,45.26009,2.03079.73175,3.045,1.10043,5.07123,1.84354q3.04728.98305,7.151,2.59824c8.03964,3.17578,11.58886,5.64271,10.71946,7.23672l-.21753.39842c-1.70212-.11422-2.55254-.1693-4.2524-.27559-5.53053-2.16837-8.30534-3.231-13.87314-5.31328q-6.43524-2.30361-14.1931-5.18205A10.182,10.182,0,0,1,1497.373,277.06581Z" transform="translate(-1 0)" style="fill:#3dbacc"/><path d="M1607.58082,325.982q-1.30194-1.28746-.57766-2.34828c2.71716-3.97463,4.07491-5.96236,6.78884-9.9387a71.46255,71.46255,0,0,0-9.97749-6.67395c-5.07534-2.99684-11.15018-7.45974-14.68557-8.04609-1.54284-.25588-4.34091,1.06027-6.05035,2.26326-.74348.45268-1.115.67922-1.8572,1.133q-.56289.43893-2.82739,1.78357a24.086,24.086,0,0,1-4.42949,2.09344,11.31748,11.31748,0,0,1-3.96349.91859c-4.38048-.72959-8.54376-4.53159-8.81492-5.97527,2.1258-.10939,5.43732-1.73626,9.97816-4.85167,6.40317-4.38076,9.63177-6.55142,16.1415-10.85241,6.42165-4.51487,13.15759-8.87991,20.04557-12.84314a79.4641,79.4641,0,0,1,16.82005-7.42038c5.87571-1.74666,10.526-1.80837,13.82324-.14716a34.39374,34.39374,0,0,1,7.1056,4.43659c-1.37655,2.02624-3.33145,7.75842-5.62054,16.91229-2.26026,9.03858-4.31261,15.08669-6.24843,17.84936-1.86585,2.66378-3.653,7.02107-5.62521,12.72748a53.32507,53.32507,0,0,1-6.42,13.24408c-1.21214,1.70011-4.158,1.284-8.87279-1.18648A21.09708,21.09708,0,0,1,1607.58082,325.982Zm9.14865-17.0296a91.224,91.224,0,0,0,3.39823-9.42084c2.62125-7.89525,4.73836-16.337,8.90315-23.77381.1624-.24465.24344-.367.40574-.61171-1.8869-.26689-5.54934.97561-10.92273,3.76719A152.9529,152.9529,0,0,0,1602.504,288.557c-5.297,3.63457-8.48118,6.2094-9.60759,7.6852q8.84957,5.42918,19.25467,10.68271Q1613.92057,307.82168,1616.72947,308.95235Z" transform="translate(-1 0)" style="fill:#3dbacc"/><path d="M774.4066,318.411a2.32617,2.32617,0,0,1-2.29758-1.17953c-2.27515-5.51093-3.41234-8.26658-5.68605-13.77819-2.51788-6.78687-4.63842-12.00006-6.21866-15.58935-4.23131-9.611-10.27106-19.5767-19.33917-25.64484a22.69016,22.69016,0,0,1,8.31744-6.42887,94.13143,94.13143,0,0,1,16.96429-6.57258,51.4127,51.4127,0,0,1,13.79558-2.06568c7.61174.28876,12.14536,2.49408,13.68788,6.46655,1.60684,4.13845.47449,8.979-3.27374,14.50282-4.79338,7.064-11.88172,12.416-18.627,17.74,1.61422,3.193,2.41976,4.79027,4.02761,7.98644.93058,1.6352,1.39516,2.45316,2.323,4.08977.5483.8506,1.14067,2.28832,1.94948,3.87706,1.70424,3.348,3.51649,6.26674,4.49659,8.54711a3.135,3.135,0,0,1-.73252,3.30192,15.26855,15.26855,0,0,1-5.16435,3.59965A9.28139,9.28139,0,0,1,774.4066,318.411Zm5.96493-48.95822c1.99832-3.56974,2.45349-6.75376,1.31478-9.54606l-.03376-.08226a13.30944,13.30944,0,0,0-3.14785-4.208,7.698,7.698,0,0,0-3.46119-.738c-1.55988-.05613-2.44459-.09613-2.64866-.13193-1.35457-.01649-4.68523.52757-10.00264,1.70377-2.77618.58578-4.16533.88421-6.94531,1.492a96.14069,96.14069,0,0,0,7.0904,12.10622c2.82376,4.8489,4.22947,7.27663,7.02838,12.13863C774.74915,277.2525,778.37183,273.02508,780.37153,269.45281Z" transform="translate(-1 0)" style="fill:#3dbacc"/><path d="M835.087,288.24976c-.46363-1.346,1.59074-2.97467,6.1808-4.83332,1.10193-.44606,1.65323-.66827,2.75634-1.11094q.94266-.28186,2.09546-.7427a6.91824,6.91824,0,0,0,2.50928-1.47414,1.7702,1.7702,0,0,0,.316-1.84542c-1.54256-4.80508-4.561-11.09511-8.69989-18.73692a124.40853,124.40853,0,0,1-8.58122-18.68243,36.06253,36.06253,0,0,1-1.18386-4.40851c-.47286-1.76351-.70908-2.64533-1.18134-4.40907a12.64565,12.64565,0,0,0-2.28171-4.35229,53.96984,53.96984,0,0,1-5.56767,2.631c-3.78589,1.54114-5.904,1.65561-6.37325.31182-.23481-.67161.751-1.7549,2.97418-3.24176a68.11605,68.11605,0,0,1,8.94186-4.85975c6.82528-3.1765,12.69568-5.64761,17.54162-7.47963a17.715,17.715,0,0,1,5.34325-1.24382c1.5524-.07191,2.42565.20907,2.61045.83659.18491.62827-.199,1.37059-1.14453,2.22816a12.15749,12.15749,0,0,1-3.91065,2.22218c-.99686.37527-1.83772.662-2.51685.85562-.79689.30217-1.19525.45369-1.9916.75748a13.42674,13.42674,0,0,0-3.48539,1.76564,1.61546,1.61546,0,0,0-.67493,1.8341c2.66552,8.26376,6.88553,16.09178,10.932,23.62447a141.18446,141.18446,0,0,1,10.47753,23.90419c.39271,1.29762.589,1.94645.98145,3.24413,1.05978-.46505,2.595-1.07877,4.60461-1.83,6.48757-2.42492,10.02926-2.58081,10.59155-.57443l.14467.51624c-2.14943,1.42171-3.22082,2.13546-5.35668,3.56876-.1547.05713-.61255.24147-1.36976.554-.76077.314-2.32572.88233-4.58966,1.76233-5.13421,1.99572-8.36734,3.38319-9.58828,3.8576C842.45272,288.00381,835.66714,289.93216,835.087,288.24976Z" transform="translate(-1 0)" style="fill:#3dbacc"/><path d="M897.51,266.38992c2.92006-3.11477,5.68279-9.76511,8.0912-19.72251,2.44593-10.11228,4.34569-20.26743,5.76453-30.44771,1.39434-10.00438,1.9202-16.6757,1.62789-19.76563-3.63195,1.2106-5.44541,1.82434-9.067,3.06841q-1.75356.64222-5.29119,1.763c-9.09887,2.89692-13.84947,3.54345-14.2982,1.74809-.04337-.17385-.06516-.26074-.10854-.4346,1.176-.99425,1.76541-1.49066,2.94708-2.482l-.02158-.08715a75.3999,75.3999,0,0,0,7.44185-2.04893c2.70624-.87074,6.682-2.37979,11.8368-4.29254,5.81051-2.156,9.85934-3.4586,11.90482-4.06307a14.08414,14.08414,0,0,1,5.13679-.71113c1.37746.12853,2.13378.54927,2.27138,1.25531,3.758,22.32134-6.176,47.06654-14.31878,69.12663,2.05455-.69248,3.08269-1.03584,5.14064-1.7167q3.00837-1.12719,7.24654-2.421c8.30991-2.5257,12.656-2.81929,12.9951-1.05263.03377.17671.05071.26505.08457.44169-1.40217.96492-2.10155,1.44856-3.497,2.41819-5.70416,1.74967-8.55054,2.647-14.23094,4.48644q-6.50044,2.20566-14.40291,4.78648A10.48492,10.48492,0,0,1,897.51,266.38992Z" transform="translate(-1 0)" style="fill:#3dbacc"/><path d="M964.64123,246.51055c3.1583-2.91173,6.475-9.39927,9.7354-19.24833q4.96631-15.002,8.391-30.23866c2.26352-9.97434,3.37408-16.65781,3.35919-19.79439-3.69487.93762-5.54028,1.41508-9.22709,2.3872q-1.78874.51156-5.38179,1.36552c-9.24161,2.21166-13.98734,2.4944-14.27143.65l-.06866-.44645c1.24894-.91075,1.87472-1.36528,3.129-2.2726l-.01365-.08947a73.97268,73.97268,0,0,0,7.52927-1.48594c2.74875-.667,6.80833-1.87856,12.06926-3.40586,5.92963-1.72141,10.04453-2.71917,12.11925-3.16944a13.74247,13.74247,0,0,1,5.13819-.31751q2.02418.35605,2.13292,1.44138c1.73525,22.7957-10.27846,46.966-20.27094,68.55708,2.09047-.53807,3.13631-.80413,5.22938-1.33025q3.07214-.90243,7.37328-1.87694c8.43283-1.89967,12.755-1.858,12.93345-.05115l.04443.45176c-1.47124.86355-2.20518,1.29664-3.6701,2.16547-5.79185,1.32024-8.68356,2.00352-14.45774,3.41594q-6.61578,1.71763-14.64836,3.70449A10.182,10.182,0,0,1,964.64123,246.51055Z" transform="translate(-1 0)" style="fill:#3dbacc"/><path d="M1083.26815,224.91882c-1.2005-.221-1.80079-.7571-1.79911-1.61595.00905-4.81462.01265-7.22181.01806-12.036a71.461,71.461,0,0,0-12.00343.09874c-5.88186.37925-13.415.10921-16.66732,1.61427-1.41931.65681-2.99143,3.31949-3.72739,5.27595-.35978.79261-.53935,1.18894-.89748,1.98176q-.21825.6796-1.3333,3.06555a24.08681,24.08681,0,0,1-2.48318,4.22335,11.31756,11.31756,0,0,1-2.7592,2.99c-4.03148,1.86227-9.61259,1.06268-10.64923.022,1.69559-1.28683,3.51726-4.49531,5.51731-9.62609,2.82729-7.22482,4.27437-10.83614,7.23465-18.055,2.76708-7.34608,5.87829-14.74519,9.3413-21.89774a79.46411,79.46411,0,0,1,9.72708-15.6c3.87379-4.75065,7.68294-7.41886,11.34334-7.90141a34.39394,34.39394,0,0,1,8.37035-.33182c.00254,2.4496,1.61273,8.288,4.87242,17.1428,3.21863,8.74329,4.92607,14.89768,4.88079,18.27076-.04311,3.252.93191,7.85949,2.51332,13.6863a53.32506,53.32506,0,0,1,2.14708,14.56066c-.04511,2.08748-2.71435,3.40146-8.00192,4.01289A21.09628,21.09628,0,0,1,1083.26815,224.91882Zm-2.02213-19.2254a91.225,91.225,0,0,0-2.49314-9.69971c-2.27678-8.00139-5.27786-16.17082-6.02072-24.66193-.00345-.29363-.00534-.4404-.00889-.734-1.7099.84134-4.038,3.92962-6.90845,9.26127a152.95617,152.95617,0,0,0-7.806,16.982c-2.33288,5.98546-3.51579,9.90587-3.61629,11.7597q10.37054-.49287,21.928-2.00637Q1078.28787,206.33968,1081.246,205.69342Z" transform="translate(-1 0)" style="fill:#3dbacc"/></g></g></svg>