<svg id="Plate_Full" data-name="Plate Full" xmlns="http://www.w3.org/2000/svg" viewBox="0 0 2207 2235.24631"><defs><style>.cls-1,.cls-2{fill:#fff;}.cls-2{stroke:#e3e0e0;stroke-miterlimit:10;stroke-width:31px;}.cls-3{fill:#3dbacc;}</style></defs><ellipse id="Plate" class="cls-1" cx="1103.5" cy="1130.36174" rx="1103.5" ry="1104.88457"/><ellipse id="Plate-2" data-name="Plate" class="cls-2" cx="1103.5" cy="1125.57603" rx="887" ry="888.11292"/><g id="VS"><path id="Path_25" data-name="Path 25" class="cls-3" d="M1134.49646,134.52019l7.16348,26.31163,9.22609,37.106,1.71936,61.24568L1199.085,143.8554l48.40744-37.16454L1201.17167,86.424,1090.31252,102.9992Z" transform="translate(-84.16484 -86.42397)"/><path id="Path_26" data-name="Path 26" class="cls-3" d="M1232.05513,120.27068l-29.28557,64.27062,23.647,14.52863-33.30595,58.57664,73.06649-63.00155-23.55641-21.31719,40.51666-54.71571L1352.53732,95l-145.59869-2.43986Z" transform="translate(-84.16484 -86.42397)"/></g><path class="cls-3" d="M774.4066,318.411a2.32617,2.32617,0,0,1-2.29758-1.17953c-2.27515-5.51093-3.41234-8.26658-5.68605-13.77819-2.51788-6.78687-4.63842-12.00006-6.21866-15.58935-4.23131-9.611-10.27106-19.5767-19.33917-25.64484a22.69016,22.69016,0,0,1,8.31744-6.42887,94.13143,94.13143,0,0,1,16.96429-6.57258,51.4127,51.4127,0,0,1,13.79558-2.06568c7.61174.28876,12.14536,2.49408,13.68788,6.46655,1.60684,4.13845.47449,8.979-3.27374,14.50282-4.79338,7.064-11.88172,12.416-18.627,17.74,1.61422,3.193,2.41976,4.79027,4.02761,7.98644.93058,1.6352,1.39516,2.45316,2.323,4.08977.5483.8506,1.14067,2.28832,1.94948,3.87706,1.70424,3.348,3.51649,6.26674,4.49659,8.54711a3.135,3.135,0,0,1-.73252,3.30192,15.26855,15.26855,0,0,1-5.16435,3.59965A9.28139,9.28139,0,0,1,774.4066,318.411Zm5.96493-48.95822c1.99832-3.56974,2.45349-6.75376,1.31478-9.54606l-.03376-.08226a13.30944,13.30944,0,0,0-3.14785-4.208,7.698,7.698,0,0,0-3.46119-.738c-1.55988-.05613-2.44459-.09613-2.64866-.13193-1.35457-.01649-4.68523.52757-10.00264,1.70377-2.77618.58578-4.16533.88421-6.94531,1.492a96.14069,96.14069,0,0,0,7.0904,12.10622c2.82376,4.8489,4.22947,7.27663,7.02838,12.13863C774.74915,277.2525,778.37183,273.02508,780.37153,269.45281Z" transform="translate(-84.16484 -86.42397)"/><path class="cls-3" d="M835.087,288.24976c-.46363-1.346,1.59074-2.97467,6.1808-4.83332,1.10193-.44606,1.65323-.66827,2.75634-1.11094q.94266-.28186,2.09546-.7427a6.91824,6.91824,0,0,0,2.50928-1.47414,1.7702,1.7702,0,0,0,.316-1.84542c-1.54256-4.80508-4.561-11.09511-8.69989-18.73692a124.40853,124.40853,0,0,1-8.58122-18.68243,36.06253,36.06253,0,0,1-1.18386-4.40851c-.47286-1.76351-.70908-2.64533-1.18134-4.40907a12.64565,12.64565,0,0,0-2.28171-4.35229,53.96984,53.96984,0,0,1-5.56767,2.631c-3.78589,1.54114-5.904,1.65561-6.37325.31182-.23481-.67161.751-1.7549,2.97418-3.24176a68.11605,68.11605,0,0,1,8.94186-4.85975c6.82528-3.1765,12.69568-5.64761,17.54162-7.47963a17.715,17.715,0,0,1,5.34325-1.24382c1.5524-.07191,2.42565.20907,2.61045.83659.18491.62827-.199,1.37059-1.14453,2.22816a12.15749,12.15749,0,0,1-3.91065,2.22218c-.99686.37527-1.83772.662-2.51685.85562-.79689.30217-1.19525.45369-1.9916.75748a13.42674,13.42674,0,0,0-3.48539,1.76564,1.61546,1.61546,0,0,0-.67493,1.8341c2.66552,8.26376,6.88553,16.09178,10.932,23.62447a141.18446,141.18446,0,0,1,10.47753,23.90419c.39271,1.29762.589,1.94645.98145,3.24413,1.05978-.46505,2.595-1.07877,4.60461-1.83,6.48757-2.42492,10.02926-2.58081,10.59155-.57443l.14467.51624c-2.14943,1.42171-3.22082,2.13546-5.35668,3.56876-.1547.05713-.61255.24147-1.36976.554-.76077.314-2.32572.88233-4.58966,1.76233-5.13421,1.99572-8.36734,3.38319-9.58828,3.8576C842.45272,288.00381,835.66714,289.93216,835.087,288.24976Z" transform="translate(-84.16484 -86.42397)"/><path class="cls-3" d="M897.51,266.38992c2.92006-3.11477,5.68279-9.76511,8.0912-19.72251,2.44593-10.11228,4.34569-20.26743,5.76453-30.44771,1.39434-10.00438,1.9202-16.6757,1.62789-19.76563-3.63195,1.2106-5.44541,1.82434-9.067,3.06841q-1.75356.64222-5.29119,1.763c-9.09887,2.89692-13.84947,3.54345-14.2982,1.74809-.04337-.17385-.06516-.26074-.10854-.4346,1.176-.99425,1.76541-1.49066,2.94708-2.482l-.02158-.08715a75.3999,75.3999,0,0,0,7.44185-2.04893c2.70624-.87074,6.682-2.37979,11.8368-4.29254,5.81051-2.156,9.85934-3.4586,11.90482-4.06307a14.08414,14.08414,0,0,1,5.13679-.71113c1.37746.12853,2.13378.54927,2.27138,1.25531,3.758,22.32134-6.176,47.06654-14.31878,69.12663,2.05455-.69248,3.08269-1.03584,5.14064-1.7167q3.00837-1.12719,7.24654-2.421c8.30991-2.5257,12.656-2.81929,12.9951-1.05263.03377.17671.05071.26505.08457.44169-1.40217.96492-2.10155,1.44856-3.497,2.41819-5.70416,1.74967-8.55054,2.647-14.23094,4.48644q-6.50044,2.20566-14.40291,4.78648A10.48492,10.48492,0,0,1,897.51,266.38992Z" transform="translate(-84.16484 -86.42397)"/><path class="cls-3" d="M964.64123,246.51055c3.1583-2.91173,6.475-9.39927,9.7354-19.24833q4.96631-15.002,8.391-30.23866c2.26352-9.97434,3.37408-16.65781,3.35919-19.79439-3.69487.93762-5.54028,1.41508-9.22709,2.3872q-1.78874.51156-5.38179,1.36552c-9.24161,2.21166-13.98734,2.4944-14.27143.65l-.06866-.44645c1.24894-.91075,1.87472-1.36528,3.129-2.2726l-.01365-.08947a73.97268,73.97268,0,0,0,7.52927-1.48594c2.74875-.667,6.80833-1.87856,12.06926-3.40586,5.92963-1.72141,10.04453-2.71917,12.11925-3.16944a13.74247,13.74247,0,0,1,5.13819-.31751q2.02418.35605,2.13292,1.44138c1.73525,22.7957-10.27846,46.966-20.27094,68.55708,2.09047-.53807,3.13631-.80413,5.22938-1.33025q3.07214-.90243,7.37328-1.87694c8.43283-1.89967,12.755-1.858,12.93345-.05115l.04443.45176c-1.47124.86355-2.20518,1.29664-3.6701,2.16547-5.79185,1.32024-8.68356,2.00352-14.45774,3.41594q-6.61578,1.71763-14.64836,3.70449A10.182,10.182,0,0,1,964.64123,246.51055Z" transform="translate(-84.16484 -86.42397)"/><path class="cls-3" d="M1083.26815,224.91882c-1.2005-.221-1.80079-.7571-1.79911-1.61595.00905-4.81462.01265-7.22181.01806-12.036a71.461,71.461,0,0,0-12.00343.09874c-5.88186.37925-13.415.10921-16.66732,1.61427-1.41931.65681-2.99143,3.31949-3.72739,5.27595-.35978.79261-.53935,1.18894-.89748,1.98176q-.21825.6796-1.3333,3.06555a24.08681,24.08681,0,0,1-2.48318,4.22335,11.31756,11.31756,0,0,1-2.7592,2.99c-4.03148,1.86227-9.61259,1.06268-10.64923.022,1.69559-1.28683,3.51726-4.49531,5.51731-9.62609,2.82729-7.22482,4.27437-10.83614,7.23465-18.055,2.76708-7.34608,5.87829-14.74519,9.3413-21.89774a79.46411,79.46411,0,0,1,9.72708-15.6c3.87379-4.75065,7.68294-7.41886,11.34334-7.90141a34.39394,34.39394,0,0,1,8.37035-.33182c.00254,2.4496,1.61273,8.288,4.87242,17.1428,3.21863,8.74329,4.92607,14.89768,4.88079,18.27076-.04311,3.252.93191,7.85949,2.51332,13.6863a53.32506,53.32506,0,0,1,2.14708,14.56066c-.04511,2.08748-2.71435,3.40146-8.00192,4.01289A21.09628,21.09628,0,0,1,1083.26815,224.91882Zm-2.02213-19.2254a91.225,91.225,0,0,0-2.49314-9.69971c-2.27678-8.00139-5.27786-16.17082-6.02072-24.66193-.00345-.29363-.00534-.4404-.00889-.734-1.7099.84134-4.038,3.92962-6.90845,9.26127a152.95617,152.95617,0,0,0-7.806,16.982c-2.33288,5.98546-3.51579,9.90587-3.61629,11.7597q10.37054-.49287,21.928-2.00637Q1078.28787,206.33968,1081.246,205.69342Z" transform="translate(-84.16484 -86.42397)"/><path class="cls-3" d="M1299.661,229.43333a2.32613,2.32613,0,0,1-1.23531-2.26806c1.22095-5.83575,1.83184-8.75356,3.05437-14.58906,1.73842-7.027,2.9196-12.52965,3.63346-16.3859,1.91153-10.32573,2.52787-21.9625-1.55257-32.08194a22.69035,22.69035,0,0,1,10.49331-.63295,94.132,94.132,0,0,1,17.7216,4.11473,51.41281,51.41281,0,0,1,12.56587,6.05673c6.12927,4.5226,8.63556,8.897,7.67487,13.04878-1.00094,4.32514-4.66121,7.689-10.86828,10.14542-7.93781,3.1413-16.80911,3.57591-25.381,4.18035-.4513,3.46016-.68418,5.23276-1.13123,8.60867l-.41549,4.927c-.02162,1.01156-.34394,2.542-.57107,4.32245-.47554,3.72655-.62025,7.15912-1.0935,9.59566a3.135,3.135,0,0,1-2.46382,2.31706,15.2686,15.2686,0,0,1-6.2947.06893A9.28128,9.28128,0,0,1,1299.661,229.43333Zm32.48442-37.11131c3.66085-1.82605,5.82906-4.20177,6.45934-7.15072l.01839-.087a13.30956,13.30956,0,0,0-.23372-5.24989,7.698,7.698,0,0,0-2.44565-2.558c-1.25779-.9243-1.96657-1.45528-2.11511-1.59973-1.11039-.776-4.16969-2.20077-9.227-4.2212-2.62444-1.07824-3.94065-1.61338-6.58065-2.67553a96.1399,96.1399,0,0,0-.95257,13.99739c-.39488,5.59727-.59928,8.39515-1.02207,13.98927C1323.10831,195.60487,1328.482,194.14938,1332.14542,192.322Z" transform="translate(-84.16484 -86.42397)"/><path class="cls-3" d="M1366.79371,238.65346c.3743-1.37354,2.989-1.56357,7.8292-.51661,1.16188.25146,1.74265.37807,2.90361.633q.93782.29754,2.15007.56542a6.91807,6.91807,0,0,0,2.9038.19372,1.77022,1.77022,0,0,0,1.29981-1.34756c1.42925-4.84,2.4743-11.73806,3.35395-20.3841a124.40935,124.40935,0,0,1,3.42139-20.27226,36.06112,36.06112,0,0,1,1.50255-4.31031c.60165-1.72383.90268-2.58568,1.505-4.30936a12.64546,12.64546,0,0,0,.56344-4.88172,53.96984,53.96984,0,0,1-6.08292-.95874c-3.99673-.85683-5.812-1.9543-5.44356-3.32915.18389-.6873,1.60844-1.02791,4.2829-1.00573a68.11807,68.11807,0,0,1,10.12635,1.01549c7.42946,1.21563,13.67263,2.47692,18.70931,3.6899a17.715,17.715,0,0,1,5.1167,1.97907c1.32367.81425,1.88735,1.538,1.68693,2.16069q-.30111.93507-2.20007,1.19762a12.157,12.157,0,0,1-4.48316-.36409c-1.03519-.25083-1.89164-.487-2.56194-.70924-.82878-.19872-1.24333-.29768-2.07256-.49475a13.42665,13.42665,0,0,0-3.87469-.50214,1.61547,1.61547,0,0,0-1.59014,1.1362c-2.44757,8.33091-3.365,17.17652-4.25966,25.68033a141.1858,141.1858,0,0,1-4.79273,25.65577c-.4057,1.29362-.60865,1.94038-1.01455,3.23393q1.70659.31806,4.83608,1.07879c6.72731,1.64682,9.74258,3.51123,9.07816,5.48615l-.171.50814c-2.57684-.03454-3.86414-.04754-6.43629-.06485q-.24-.05978-1.444-.313c-.80557-.1686-2.419-.5796-4.78561-1.12635-5.36709-1.2399-8.82044-1.91266-10.09666-2.20766C1373.02057,242.59562,1366.3264,240.37062,1366.79371,238.65346Z" transform="translate(-84.16484 -86.42397)"/><path class="cls-3" d="M1430.69479,255.71622c4.1667-.93123,10.19318-4.87346,17.788-11.74869q11.56951-10.4732,21.901-21.92349c6.783-7.4848,10.97235-12.70329,12.46977-15.42191-3.68347-1.0434-5.52787-1.55671-9.22159-2.56659q-1.81092-.45606-5.36585-1.52065c-9.15144-2.72631-13.44211-4.86556-12.80259-6.60213.062-.16811.09289-.2522.15488-.42032,1.53163-.16,2.29821-.23859,3.83289-.393l.03121-.08418A75.40161,75.40161,0,0,0,1466.787,197.53c2.727.80333,6.8626,1.79352,12.2,3.11362,6.01634,1.488,10.09615,2.69,12.12712,3.34157a14.08444,14.08444,0,0,1,4.64625,2.30319q1.59939,1.32223,1.171,2.316c-9.45623,20.56561-31.59428,35.42887-50.74049,49.08077,2.088.58391,3.1311.87873,5.21537,1.47417q3.12108.76139,7.35247,2.0772c8.29037,2.58913,12.048,4.79243,11.334,6.44359-.07154.16507-.10725.24763-.17868.4127-1.70208.00844-2.55237.0146-4.25156.03071-5.69972-1.764-8.55756-2.62425-14.28815-4.30077q-6.61456-1.83529-14.59915-4.14954A10.485,10.485,0,0,1,1430.69479,255.71622Z" transform="translate(-84.16484 -86.42397)"/><path class="cls-3" d="M1497.373,277.06581c4.24936-.62931,10.64208-4.12523,18.88023-10.43137q12.54828-9.60549,23.95436-20.27249c7.4846-6.97079,12.16406-11.87026,13.917-14.4713-3.58184-1.30446-5.376-1.9484-8.97055-3.2198q-1.76646-.58386-5.21706-1.90017c-8.88376-3.37307-12.96566-5.81028-12.16248-7.49468l.19451-.40768c1.54494-.04991,2.318-.07342,3.86546-.11747l.03907-.08164a73.97275,73.97275,0,0,0,7.05992,3.00923c2.64749.99567,6.685,2.279,11.89316,3.97738,5.8702,1.91431,9.83309,3.40545,11.80144,4.20092a13.74243,13.74243,0,0,1,4.42588,2.62934q1.47276,1.43354.95183,2.39185c-11.39516,19.81932-34.9287,33.03689-55.33994,45.26009,2.03079.73175,3.045,1.10043,5.07123,1.84354q3.04728.98305,7.151,2.59824c8.03964,3.17578,11.58886,5.64271,10.71946,7.23672l-.21753.39842c-1.70212-.11422-2.55254-.1693-4.2524-.27559-5.53053-2.16837-8.30534-3.231-13.87314-5.31328q-6.43524-2.30361-14.1931-5.18205A10.182,10.182,0,0,1,1497.373,277.06581Z" transform="translate(-84.16484 -86.42397)"/><path class="cls-3" d="M1607.58082,325.982q-1.30194-1.28746-.57766-2.34828c2.71716-3.97463,4.07491-5.96236,6.78884-9.9387a71.46255,71.46255,0,0,0-9.97749-6.67395c-5.07534-2.99684-11.15018-7.45974-14.68557-8.04609-1.54284-.25588-4.34091,1.06027-6.05035,2.26326-.74348.45268-1.115.67922-1.8572,1.133q-.56289.43893-2.82739,1.78357a24.086,24.086,0,0,1-4.42949,2.09344,11.31748,11.31748,0,0,1-3.96349.91859c-4.38048-.72959-8.54376-4.53159-8.81492-5.97527,2.1258-.10939,5.43732-1.73626,9.97816-4.85167,6.40317-4.38076,9.63177-6.55142,16.1415-10.85241,6.42165-4.51487,13.15759-8.87991,20.04557-12.84314a79.4641,79.4641,0,0,1,16.82005-7.42038c5.87571-1.74666,10.526-1.80837,13.82324-.14716a34.39374,34.39374,0,0,1,7.1056,4.43659c-1.37655,2.02624-3.33145,7.75842-5.62054,16.91229-2.26026,9.03858-4.31261,15.08669-6.24843,17.84936-1.86585,2.66378-3.653,7.02107-5.62521,12.72748a53.32507,53.32507,0,0,1-6.42,13.24408c-1.21214,1.70011-4.158,1.284-8.87279-1.18648A21.09708,21.09708,0,0,1,1607.58082,325.982Zm9.14865-17.0296a91.224,91.224,0,0,0,3.39823-9.42084c2.62125-7.89525,4.73836-16.337,8.90315-23.77381.1624-.24465.24344-.367.40574-.61171-1.8869-.26689-5.54934.97561-10.92273,3.76719A152.9529,152.9529,0,0,0,1602.504,288.557c-5.297,3.63457-8.48118,6.2094-9.60759,7.6852q8.84957,5.42918,19.25467,10.68271Q1613.92057,307.82168,1616.72947,308.95235Z" transform="translate(-84.16484 -86.42397)"/></svg>