<svg id="Plate_Full" data-name="Plate Full" xmlns="http://www.w3.org/2000/svg" viewBox="0 0 2207 2235.24606"><ellipse id="Plate" cx="1103.5" cy="1130.36163" rx="1103.5" ry="1104.88443" style="fill:#fff"/><ellipse id="Plate-2" cx="1103.5" cy="1125.57602" rx="887" ry="888.11292" style="fill:#fff;stroke:#e3e0e0;stroke-miterlimit:10;stroke-width:31px"/><g id="VS"><path id="Path_25" data-name="Path 25" d="M1050.33162,48.09621l7.16345,26.31163,9.22608,37.106,1.71936,61.24568,46.47961-115.32811,48.40747-37.16454L1117.00679,0l-110.85913,16.5752Z" transform="translate(0 -0.00003)" style="fill:#3dbacc"/><path id="Path_26" data-name="Path 26" d="M1147.89034,33.84671l-29.28553,64.27062,23.647,14.52863-33.30591,58.57664,73.06653-63.00155L1158.456,86.90386l40.5166-54.71571L1268.37251,8.576,1122.77388,6.13617Z" transform="translate(0 -0.00003)" style="fill:#3dbacc"/></g><path d="M690.24178,231.987a2.32617,2.32617,0,0,1-2.29761-1.17954c-2.27515-5.51092-3.41236-8.26657-5.686-13.7782-2.51788-6.78686-4.63842-12.00006-6.21869-15.58935-4.23132-9.611-10.27105-19.57669-19.33917-25.64484a22.69087,22.69087,0,0,1,8.31745-6.42886,94.13136,94.13136,0,0,1,16.96429-6.57259A51.41255,51.41255,0,0,1,695.7776,160.728c7.61176.28876,12.14539,2.49408,13.68787,6.46655,1.60681,4.13844.47449,8.979-3.27374,14.50282-4.7934,7.064-11.88172,12.416-18.627,17.74,1.6142,3.193,2.41974,4.79028,4.02759,7.98645.9306,1.63519,1.39514,2.45315,2.323,4.08978.54828.85058,1.14068,2.28833,1.94946,3.87707,1.70422,3.348,3.51648,6.26676,4.49658,8.54712a3.135,3.135,0,0,1-.73254,3.30191,15.2686,15.2686,0,0,1-5.16437,3.59964A9.2814,9.2814,0,0,1,690.24178,231.987Zm5.9649-48.95822c1.99829-3.56974,2.45349-6.75376,1.31476-9.54605l-.03375-.08225a13.30905,13.30905,0,0,0-3.14783-4.208,7.698,7.698,0,0,0-3.46118-.738c-1.55988-.05614-2.44458-.09613-2.64868-.13193-1.35456-.0165-4.68525.52757-10.00263,1.70376-2.77618.58579-4.16534.88422-6.94531,1.492a96.14347,96.14347,0,0,0,7.09039,12.10623c2.82373,4.84891,4.22949,7.27664,7.02838,12.13864,5.18347-4.93469,8.80616-9.16211,10.80585-12.73437Z" transform="translate(0 -0.00003)" style="fill:#3dbacc"/><path d="M750.92213,201.82578c-.46362-1.346,1.59076-2.97467,6.18079-4.83331,1.10193-.446,1.65326-.66827,2.75635-1.11093q.94272-.28189,2.09546-.74271a6.91818,6.91818,0,0,0,2.50927-1.47415,1.77019,1.77019,0,0,0,.316-1.84543c-1.54254-4.80508-4.561-11.09512-8.69989-18.73691a124.40629,124.40629,0,0,1-8.58123-18.68243,36.06783,36.06783,0,0,1-1.18384-4.40851c-.47284-1.7635-.70911-2.64532-1.18134-4.40907a12.64627,12.64627,0,0,0-2.28174-4.3523,53.96706,53.96706,0,0,1-5.56768,2.631c-3.78589,1.54114-5.904,1.65561-6.37323.31181-.23481-.67161.751-1.75489,2.97418-3.24176a68.121,68.121,0,0,1,8.94183-4.85975c6.82526-3.1765,12.69568-5.64762,17.54163-7.47963a17.7147,17.7147,0,0,1,5.34326-1.24382c1.55243-.07192,2.42566.20907,2.61047.83659.18494.62827-.199,1.37059-1.14453,2.22817a12.15735,12.15735,0,0,1-3.91064,2.22218q-1.49533.56291-2.51685.85562c-.79687.30217-1.19525.45369-1.99158.75748a13.42683,13.42683,0,0,0-3.48541,1.76564,1.61547,1.61547,0,0,0-.67493,1.8341c2.66553,8.26377,6.88556,16.09179,10.932,23.62447A141.1851,141.1851,0,0,1,776.008,185.37632c.3927,1.29761.589,1.94644.98145,3.24414,1.05975-.46506,2.595-1.07877,4.60461-1.83,6.48755-2.42492,10.02924-2.58081,10.59155-.57443l.14466.51624c-2.14942,1.42172-3.22083,2.13546-5.35669,3.56875-.15473.05713-.61255.24146-1.36975.554-.76075.314-2.32575.88232-4.58966,1.76233-5.13422,1.99573-8.36738,3.38318-9.58826,3.8576C758.28786,201.57984,751.50227,203.50819,750.92213,201.82578Z" transform="translate(0 -0.00003)" style="fill:#3dbacc"/><path d="M813.34517,179.966c2.92-3.11478,5.6828-9.76511,8.09119-19.7225,2.44592-10.11228,4.3457-20.26743,5.76452-30.44771,1.39435-10.00438,1.92023-16.67571,1.62787-19.76563-3.632,1.21061-5.44543,1.82434-9.067,3.06841q-1.7535.64221-5.29119,1.763c-9.09888,2.89693-13.84949,3.54346-14.29822,1.74809-.0434-.17384-.06519-.26074-.10852-.4346,1.176-.99425,1.76538-1.49066,2.94708-2.482l-.02161-.08715a75.40334,75.40334,0,0,0,7.44184-2.04893c2.70623-.87074,6.682-2.37979,11.83679-4.29254,5.81048-2.156,9.85931-3.45861,11.90484-4.06307a14.084,14.084,0,0,1,5.13678-.71113c1.37745.12852,2.13379.54927,2.27137,1.25531,3.758,22.32133-6.176,47.06654-14.31879,69.12663,2.05457-.69248,3.0827-1.03583,5.14063-1.71671q3.00841-1.12719,7.24652-2.421c8.30993-2.5257,12.656-2.81929,12.99511-1.05263.03376.17671.05072.26505.0846.4417-1.40216.96492-2.10156,1.44856-3.497,2.41819-5.70416,1.74967-8.55054,2.647-14.231,4.48645q-6.50043,2.20569-14.40289,4.78647A10.485,10.485,0,0,1,813.34517,179.966Z" transform="translate(0 -0.00003)" style="fill:#3dbacc"/><path d="M880.47639,160.08657c3.15833-2.91173,6.475-9.39928,9.73542-19.24834q4.96627-15.002,8.391-30.23866c2.26355-9.97433,3.37408-16.65781,3.35919-19.79439-3.69488.93763-5.54028,1.41509-9.22711,2.38721q-1.78877.51154-5.38178,1.36552c-9.24163,2.21166-13.98736,2.4944-14.27142.65l-.06866-.44646c1.249-.91075,1.87469-1.36528,3.129-2.2726l-.01367-.08947a73.97043,73.97043,0,0,0,7.5293-1.48595c2.74878-.667,6.80835-1.87856,12.06927-3.40585,5.92963-1.72141,10.04456-2.71918,12.11927-3.16944a13.74232,13.74232,0,0,1,5.13818-.3175q2.02424.356,2.13293,1.44137c1.73523,22.7957-10.27844,46.966-20.27093,68.55709,2.09045-.53807,3.13629-.80413,5.22937-1.33025q3.07224-.90246,7.37329-1.87694c8.4328-1.89967,12.755-1.858,12.93347-.05114l.04444.45176c-1.47126.86356-2.2052,1.29665-3.67011,2.16547-5.79187,1.32023-8.68353,2.00352-14.45776,3.41594q-6.61578,1.71762-14.64838,3.70448A10.182,10.182,0,0,1,880.47639,160.08657Z" transform="translate(0 -0.00003)" style="fill:#3dbacc"/><path d="M999.10335,138.49485c-1.20044-.221-1.80078-.7571-1.79907-1.616.009-4.81462.01269-7.22182.01806-12.036a71.46213,71.46213,0,0,0-12.00342.09874c-5.88183.37926-13.415.10921-16.66735,1.61428-1.41932.65681-2.99146,3.31948-3.72742,5.276-.35974.7926-.53931,1.18894-.89746,1.98177q-.21827.67959-1.33325,3.06555a24.0852,24.0852,0,0,1-2.48316,4.22334,11.31818,11.31818,0,0,1-2.75915,2.99c-4.0315,1.86227-9.61255,1.06268-10.64917.022,1.69555-1.28683,3.51721-4.49532,5.51733-9.62608,2.82727-7.22483,4.27441-10.83614,7.23462-18.055,2.76709-7.34609,5.8783-14.74519,9.34131-21.89774a79.46656,79.46656,0,0,1,9.727-15.6c3.87378-4.75066,7.683-7.41886,11.34338-7.90142a34.39436,34.39436,0,0,1,8.37036-.33181c.00257,2.4496,1.61267,8.288,4.87244,17.1428,3.21863,8.74329,4.926,14.89768,4.88074,18.27076-.04309,3.252.93188,7.85949,2.5133,13.68629a53.32452,53.32452,0,0,1,2.1471,14.56065c-.04517,2.08748-2.71436,3.40146-8.002,4.0129A21.09575,21.09575,0,0,1,999.10335,138.49485Zm-2.0221-19.2254a91.22381,91.22381,0,0,0-2.49316-9.69971c-2.27673-8.00139-5.27783-16.17082-6.02075-24.66193-.00342-.29362-.00537-.4404-.00891-.734-1.71.84134-4.038,3.92963-6.90845,9.26128a152.94752,152.94752,0,0,0-7.806,16.982c-2.33289,5.98546-3.51575,9.90587-3.61633,11.75971q10.37053-.4929,21.928-2.00637,1.9673-.25474,4.92554-.901Z" transform="translate(0 -0.00003)" style="fill:#3dbacc"/><path d="M1215.49617,143.00936a2.32633,2.32633,0,0,1-1.23535-2.26807c1.221-5.83575,1.83179-8.75355,3.05432-14.58906,1.7384-7.027,2.91956-12.52965,3.63342-16.3859,1.9115-10.32572,2.52783-21.96249-1.55261-32.08194a22.69048,22.69048,0,0,1,10.49329-.63294,94.1308,94.1308,0,0,1,17.72155,4.11473,51.41266,51.41266,0,0,1,12.56592,6.05673c6.12927,4.5226,8.63562,8.897,7.67493,13.04878-1.001,4.32513-4.66126,7.689-10.86829,10.14542-7.93786,3.14129-16.80908,3.57591-25.381,4.18034-.45129,3.46016-.6842,5.23276-1.13122,8.60867l-.41553,4.927c-.02161,1.01156-.344,2.542-.57105,4.32244-.47558,3.72655-.62024,7.15912-1.0935,9.59566a3.13489,3.13489,0,0,1-2.46387,2.31706,15.26868,15.26868,0,0,1-6.29468.06893A9.281,9.281,0,0,1,1215.49617,143.00936Zm32.48438-37.11131c3.66088-1.826,5.8291-4.20177,6.45935-7.15073l.01843-.087a13.31064,13.31064,0,0,0-.23377-5.2499,7.69782,7.69782,0,0,0-2.44568-2.558c-1.25781-.9243-1.96655-1.45527-2.11511-1.59973-1.11035-.776-4.16968-2.20077-9.22705-4.2212-2.62439-1.07825-3.94067-1.61338-6.58069-2.67554a96.14287,96.14287,0,0,0-.95251,13.99739c-.3949,5.59727-.59924,8.39516-1.0221,13.98927,7.062-1.16171,12.43579-2.6172,16.09913-4.44458Z" transform="translate(0 -0.00003)" style="fill:#3dbacc"/><path d="M1282.62886,152.22948c.37427-1.37353,2.989-1.56356,7.82922-.51661,1.16187.25146,1.74268.37806,2.90357.633q.93786.29756,2.15.56542a6.918,6.918,0,0,0,2.90381.19372,1.77027,1.77027,0,0,0,1.29981-1.34756c1.4292-4.84,2.47424-11.73805,3.354-20.3841a124.41516,124.41516,0,0,1,3.42139-20.27226,36.04741,36.04741,0,0,1,1.50256-4.3103c.60168-1.72383.90271-2.58568,1.505-4.30936a12.64588,12.64588,0,0,0,.56347-4.88171,53.9699,53.9699,0,0,1-6.08288-.95874c-3.99671-.85683-5.812-1.9543-5.44361-3.32915.18384-.6873,1.6084-1.02791,4.283-1.00574a68.11821,68.11821,0,0,1,10.12634,1.01549c7.42945,1.21564,13.67261,2.47691,18.70935,3.6899a17.71439,17.71439,0,0,1,5.1167,1.97906c1.32373.81426,1.88733,1.538,1.68689,2.16069q-.3012.93506-2.20007,1.19762a12.15685,12.15685,0,0,1-4.48315-.36409c-1.03516-.25083-1.89161-.487-2.56189-.70924-.82874-.19872-1.24329-.29769-2.07251-.49476a13.427,13.427,0,0,0-3.87464-.50213,1.61544,1.61544,0,0,0-1.59008,1.1362c-2.44751,8.33092-3.365,17.17651-4.25965,25.68033a141.18141,141.18141,0,0,1-4.79272,25.65577c-.40564,1.29363-.60865,1.94039-1.01453,3.23394q1.70655.318,4.83606,1.07879c6.7273,1.64682,9.74255,3.51123,9.07813,5.48615l-.171.50813c-2.57678-.03455-3.86413-.04755-6.43627-.06485q-.24006-.05979-1.444-.313c-.80555-.1686-2.41895-.57961-4.78565-1.12635-5.36706-1.23989-8.82043-1.91265-10.09668-2.20765C1288.85579,156.17165,1282.16158,153.94665,1282.62886,152.22948Z" transform="translate(0 -0.00003)" style="fill:#3dbacc"/><path d="M1346.53,169.29224c4.16675-.93122,10.19324-4.87345,17.788-11.74868a306.72758,306.72758,0,0,0,21.901-21.9235c6.783-7.4848,10.97229-12.70329,12.46972-15.4219-3.68347-1.0434-5.52783-1.55672-9.22155-2.56659q-1.81092-.456-5.36585-1.52065c-9.15149-2.7263-13.44214-4.86555-12.80261-6.60212.062-.16811.0929-.2522.15491-.42032,1.53161-.16,2.29822-.23859,3.83288-.393l.03125-.08418a75.40308,75.40308,0,0,0,7.30445,2.49474c2.72705.80333,6.86255,1.79351,12.2,3.11361,6.01636,1.488,10.09619,2.69,12.12707,3.34157a14.084,14.084,0,0,1,4.64624,2.30319q1.59944,1.32223,1.171,2.316c-9.45617,20.56561-31.59423,35.42886-50.74047,49.08078,2.088.58392,3.1311.87872,5.21533,1.47418q3.121.76136,7.35241,2.07721c8.29041,2.58914,12.048,4.79242,11.334,6.4436-.07153.16507-.1073.24762-.17871.41269-1.702.00845-2.55237.01459-4.25159.0307-5.69971-1.764-8.55762-2.62423-14.28821-4.30078q-6.61451-1.83531-14.59912-4.14954A10.485,10.485,0,0,1,1346.53,169.29224Z" transform="translate(0 -0.00003)" style="fill:#3dbacc"/><path d="M1413.20821,190.64182c4.24939-.6293,10.64209-4.12524,18.88025-10.43136q12.54821-9.60554,23.95434-20.27249c7.48462-6.9708,12.16406-11.87026,13.917-14.4713-3.58178-1.30446-5.376-1.9484-8.97058-3.21981q-1.76641-.58384-5.217-1.90017c-8.88379-3.37308-12.9657-5.81027-12.16247-7.49468l.19445-.40768c1.54493-.04991,2.318-.07343,3.86548-.11748l.03906-.08163a73.97867,73.97867,0,0,0,7.05994,3.00923c2.64746.99566,6.68506,2.279,11.89319,3.97738,5.87024,1.91431,9.83313,3.40546,11.80139,4.20092a13.742,13.742,0,0,1,4.4259,2.62933q1.47273,1.4335.95179,2.39185c-11.39514,19.81932-34.92871,33.03689-55.34,45.2601,2.03076.73175,3.045,1.10043,5.07129,1.84353q3.04724.9831,7.151,2.59824c8.03967,3.17578,11.58887,5.6427,10.71948,7.23672l-.21753.39841c-1.70214-.11423-2.55249-.16931-4.25244-.2756-5.53052-2.16837-8.3053-3.231-13.87317-5.3133q-6.43524-2.30364-14.19311-5.182A10.182,10.182,0,0,1,1413.20821,190.64182Z" transform="translate(0 -0.00003)" style="fill:#3dbacc"/><path d="M1523.416,239.558q-1.30188-1.28746-.57764-2.34827c2.71717-3.97463,4.07495-5.96237,6.78882-9.93869a71.46657,71.46657,0,0,0-9.97754-6.674c-5.07531-2.99682-11.15014-7.45974-14.68554-8.04608-1.54285-.25589-4.341,1.06028-6.0503,2.26328-.74353.45267-1.115.67923-1.85718,1.133q-.56286.439-2.82739,1.78357a24.08439,24.08439,0,0,1-4.42944,2.09345,11.31756,11.31756,0,0,1-3.9635.91858c-4.3805-.72959-8.5437-4.53159-8.81494-5.97528,2.12585-.10938,5.43737-1.73627,9.97815-4.85169,6.40319-4.38077,9.63171-6.55142,16.14148-10.85242,6.42163-4.51486,13.15759-8.87991,20.04553-12.84313A79.46533,79.46533,0,0,1,1540.00655,178.8c5.87573-1.74668,10.526-1.80838,13.82324-.14716a34.39636,34.39636,0,0,1,7.10559,4.43658c-1.37659,2.02625-3.33142,7.75843-5.62048,16.9123-2.26026,9.03857-4.31263,15.0867-6.24842,17.84936-1.86584,2.66379-3.65295,7.02106-5.62524,12.72748a53.324,53.324,0,0,1-6.42005,13.24408c-1.21215,1.7001-4.158,1.284-8.8728-1.18649A21.09751,21.09751,0,0,1,1523.416,239.558Zm9.14868-17.0296a91.20548,91.20548,0,0,0,3.39819-9.42084c2.62122-7.89526,4.73841-16.337,8.9032-23.7738.16236-.24466.24341-.367.40576-.61173-1.88684-.26687-5.54931.97562-10.92272,3.76718a152.94961,152.94961,0,0,0-16.00989,9.6438c-5.297,3.63459-8.4812,6.20942-9.60755,7.68521q8.84967,5.42917,19.25464,10.68271,1.76935.89676,4.57837,2.02744Z" transform="translate(0 -0.00003)" style="fill:#3dbacc"/></svg>